<svg width="757" height="205" viewBox="0 0 757 205" fill="none" xmlns="http://www.w3.org/2000/svg">
<path d="M733.301 42.8945L756.836 201H714.746L712.695 172.582H697.949L695.508 201H652.93L673.828 42.8945H733.301ZM711.523 144.555C709.44 126.651 707.357 104.548 705.273 78.2461C701.107 108.454 698.503 130.557 697.461 144.555H711.523Z" fill="#4A6FD6"/>
<path d="M627.246 42.8945V169.359H652.246V201H586.133V42.8945H627.246Z" fill="#4A6FD6"/>
<path d="M573.969 86V201H518.969V86C518.969 86 531.847 94.6307 546.469 94.6706C561.17 94.7108 573.969 86 573.969 86Z" fill="#4A6FD6"/>
<path d="M512.109 90.7461H473.926V79.0273C473.926 73.5586 473.438 70.0755 472.461 68.5781C471.484 67.0807 469.857 66.332 467.578 66.332C465.104 66.332 463.216 67.3411 461.914 69.3594C460.677 71.3776 460.059 74.4375 460.059 78.5391C460.059 83.8125 460.775 87.7839 462.207 90.4531C463.574 93.1224 467.448 96.3451 473.828 100.121C492.122 110.993 503.646 119.913 508.398 126.879C513.151 133.845 515.527 145.076 515.527 160.57C515.527 171.833 514.193 180.134 511.523 185.473C508.919 190.811 503.841 195.303 496.289 198.949C488.737 202.53 479.948 204.32 469.922 204.32C458.919 204.32 449.512 202.237 441.699 198.07C433.952 193.904 428.874 188.598 426.465 182.152C424.056 175.707 422.852 166.56 422.852 154.711V144.359H461.035V163.598C461.035 169.522 461.556 173.331 462.598 175.023C463.704 176.716 465.625 177.562 468.359 177.562C471.094 177.562 473.112 176.488 474.414 174.34C475.781 172.191 476.465 169.001 476.465 164.77C476.465 155.46 475.195 149.372 472.656 146.508C470.052 143.643 463.639 138.858 453.418 132.152C443.197 125.382 436.426 120.466 433.105 117.406C429.785 114.346 427.018 110.115 424.805 104.711C422.656 99.3073 421.582 92.4062 421.582 84.0078C421.582 71.8984 423.112 63.0443 426.172 57.4453C429.297 51.8464 434.31 47.4844 441.211 44.3594C448.112 41.1693 456.445 39.5742 466.211 39.5742C476.888 39.5742 485.97 41.2995 493.457 44.75C501.009 48.2005 505.99 52.5625 508.398 57.8359C510.872 63.0443 512.109 71.931 512.109 84.4961V90.7461Z" fill="#4A6FD6"/>
<path d="M408.594 90.7461H370.41V79.0273C370.41 73.5586 369.922 70.0755 368.945 68.5781C367.969 67.0807 366.341 66.332 364.062 66.332C361.589 66.332 359.701 67.3411 358.398 69.3594C357.161 71.3776 356.543 74.4375 356.543 78.5391C356.543 83.8125 357.259 87.7839 358.691 90.4531C360.059 93.1224 363.932 96.3451 370.312 100.121C388.607 110.993 400.13 119.913 404.883 126.879C409.635 133.845 412.012 145.076 412.012 160.57C412.012 171.833 410.677 180.134 408.008 185.473C405.404 190.811 400.326 195.303 392.773 198.949C385.221 202.53 376.432 204.32 366.406 204.32C355.404 204.32 345.996 202.237 338.184 198.07C330.436 193.904 325.358 188.598 322.949 182.152C320.54 175.707 319.336 166.56 319.336 154.711V144.359H357.52V163.598C357.52 169.522 358.04 173.331 359.082 175.023C360.189 176.716 362.109 177.562 364.844 177.562C367.578 177.562 369.596 176.488 370.898 174.34C372.266 172.191 372.949 169.001 372.949 164.77C372.949 155.46 371.68 149.372 369.141 146.508C366.536 143.643 360.124 138.858 349.902 132.152C339.681 125.382 332.91 120.466 329.59 117.406C326.27 114.346 323.503 110.115 321.289 104.711C319.141 99.3073 318.066 92.4062 318.066 84.0078C318.066 71.8984 319.596 63.0443 322.656 57.4453C325.781 51.8464 330.794 47.4844 337.695 44.3594C344.596 41.1693 352.93 39.5742 362.695 39.5742C373.372 39.5742 382.454 41.2995 389.941 44.75C397.493 48.2005 402.474 52.5625 404.883 57.8359C407.357 63.0443 408.594 71.931 408.594 84.4961V90.7461Z" fill="#4A6FD6"/>
<path d="M290.918 42.8945L314.453 201H272.363L270.312 172.582H255.566L253.125 201H210.547L231.445 42.8945H290.918ZM269.141 144.555C267.057 126.651 264.974 104.548 262.891 78.2461C258.724 108.454 256.12 130.557 255.078 144.555H269.141Z" fill="#4A6FD6"/>
<path d="M204.004 42.8945V148.559C204.004 160.538 203.613 168.969 202.832 173.852C202.051 178.669 199.74 183.65 195.898 188.793C192.057 193.871 186.979 197.745 180.664 200.414C174.414 203.018 167.025 204.32 158.496 204.32C149.056 204.32 140.723 202.758 133.496 199.633C126.27 196.508 120.866 192.439 117.285 187.426C113.704 182.413 111.589 177.139 110.938 171.605C110.286 166.007 109.961 154.288 109.961 136.449V42.8945H151.074V161.449C151.074 168.35 151.432 172.777 152.148 174.73C152.93 176.618 154.46 177.562 156.738 177.562C159.342 177.562 161.003 176.521 161.719 174.438C162.5 172.289 162.891 167.276 162.891 159.398V42.8945H204.004Z" fill="#4A6FD6"/>
<path d="M95.1172 135.473C95.1172 151.358 94.7266 162.621 93.9453 169.262C93.2292 175.837 90.8854 181.859 86.9141 187.328C83.0078 192.797 77.7018 196.996 70.9961 199.926C64.2904 202.855 56.4779 204.32 47.5586 204.32C39.0951 204.32 31.4779 202.953 24.707 200.219C18.0013 197.419 12.5977 193.253 8.49609 187.719C4.39453 182.185 1.95312 176.163 1.17188 169.652C0.390625 163.142 0 151.749 0 135.473V108.422C0 92.5365 0.358073 81.306 1.07422 74.7305C1.85547 68.0898 4.19922 62.0352 8.10547 56.5664C12.0768 51.0977 17.4154 46.8984 24.1211 43.9688C30.8268 41.0391 38.6393 39.5742 47.5586 39.5742C56.0221 39.5742 63.6068 40.974 70.3125 43.7734C77.0833 46.5078 82.5195 50.6419 86.6211 56.1758C90.7227 61.7096 93.1641 67.7318 93.9453 74.2422C94.7266 80.7526 95.1172 92.1458 95.1172 108.422V135.473ZM54.0039 83.5195C54.0039 76.1628 53.5807 71.4753 52.7344 69.457C51.9531 67.3737 50.293 66.332 47.7539 66.332C45.6055 66.332 43.9453 67.1784 42.7734 68.8711C41.6667 70.4987 41.1133 75.3815 41.1133 83.5195V157.348C41.1133 166.527 41.4714 172.191 42.1875 174.34C42.9688 176.488 44.7266 177.562 47.4609 177.562C50.2604 177.562 52.0508 176.326 52.832 173.852C53.6133 171.378 54.0039 165.486 54.0039 156.176V83.5195Z" fill="#4A6FD6"/>
<path d="M554.462 22.3116C557.173 22.5717 559.393 23.984 560.872 24.9821C561.663 25.516 562.465 26.5736 563.059 27.5597C564.309 29.6342 564.2 32.2837 564.171 32.9893C564.144 33.6466 564.078 34.429 563.453 38.8611C563.162 40.9274 562.669 41.8716 562.469 42.377L562.462 42.3937L562.455 42.4103C562.217 42.949 562.011 43.3801 561.842 43.673L561.836 43.6825L561.83 43.6917C561.753 43.8189 561.688 43.9124 561.496 44.2718C561.451 44.3573 561.394 44.4333 561.329 44.4983C561.197 44.6303 561.03 44.7181 560.852 44.7553C560.642 44.7992 560.416 44.7726 560.212 44.6639C560.171 44.6421 560.132 44.6177 560.096 44.591C560.057 44.5621 560.02 44.5303 559.986 44.4964C559.743 44.2529 559.648 43.892 559.747 43.5577C559.765 43.4972 559.789 43.4376 559.82 43.3797C559.827 43.3671 559.833 43.3547 559.84 43.3425C560.016 43.0144 560.108 42.8654 560.174 42.7585C560.182 42.7456 560.19 42.7333 560.197 42.7214C560.312 42.5236 560.483 42.1723 560.717 41.6432C560.937 41.0971 561.323 40.3607 561.572 38.5956C562.2 34.1407 562.25 33.4565 562.273 32.9108C562.303 32.1697 562.353 30.0687 561.432 28.5397C560.869 27.6056 560.242 26.8489 559.809 26.5568C558.341 25.5661 556.471 24.4129 554.28 24.2028C553.549 24.1326 552.626 24.0529 551.737 24.0201C550.827 23.9865 550.031 24.0059 549.523 24.1043C549.03 24.1996 548.43 24.2713 548.172 24.3148C547.831 24.3725 547.676 24.4306 547.573 24.4988C547.084 24.8221 546.569 25.2319 546.02 25.7698C545.436 26.3416 544.839 26.9864 544.505 27.5688C544.095 28.2848 543.805 28.7414 543.597 29.246C543.309 29.9453 543.077 30.5901 542.955 31.1566C542.784 31.953 542.586 32.9616 542.435 33.8765C542.278 34.8254 542.189 35.5747 542.201 35.9122C542.236 36.9181 542.275 37.6118 542.427 38.4532C542.703 39.9804 542.709 40.7209 542.665 41.0453C542.642 41.2158 542.576 41.3698 542.478 41.4971C542.278 41.7579 541.947 41.9075 541.598 41.8609C541.078 41.7913 540.713 41.3133 540.782 40.7935C540.783 40.7866 540.795 40.6572 540.771 40.3391C540.747 40.015 540.689 39.5179 540.558 38.7908C540.38 37.8084 540.339 37.0017 540.303 35.9787C540.284 35.4206 540.409 34.4838 540.56 33.5669C540.718 32.6152 540.922 31.5765 541.098 30.7578C541.256 30.0207 541.542 29.2487 541.84 28.5227C542.11 27.8677 542.506 27.2379 542.857 26.6249C543.333 25.7942 544.1 24.9913 544.691 24.4128C545.321 23.7959 545.929 23.309 546.525 22.9149C546.968 22.6223 547.444 22.5118 547.855 22.4422C548.35 22.3583 548.624 22.3434 549.162 22.2393C549.899 22.0966 550.881 22.088 551.806 22.1221C552.752 22.157 553.72 22.2404 554.462 22.3116Z" fill="#4A6FD6"/>
<path d="M568.967 38.5389C569.92 38.4451 571.019 38.6138 571.925 38.8221C572.843 39.0332 573.662 39.3087 574.093 39.4893C574.514 39.6662 574.928 39.9393 575.281 40.1875C575.677 40.4656 575.965 40.6876 576.299 40.911C576.776 41.2307 577.125 41.6685 577.456 42.1796C577.782 42.682 578.149 43.3505 578.614 44.1756C579.394 45.5575 579.77 47.3776 579.937 48.2646C580.058 48.9109 580.248 49.8799 580.328 51.0041C580.392 51.9031 580.197 52.9728 579.97 53.8597C579.74 54.7613 579.448 55.5863 579.248 56.0333C578.806 57.0169 578.088 57.6931 577.634 58.1417C577.134 58.6353 576.234 59.2317 575.555 59.6376C574.733 60.1284 573.807 60.4163 573.04 60.6378C571.517 61.0777 570.604 61.3678 569.862 61.4545C569.135 61.5396 568.251 61.7171 567.263 61.9418L567.023 62.0062C566.794 62.0715 566.592 62.14 566.375 62.2196L566.36 62.2255L566.345 62.2305C566.223 62.2707 566.04 62.3268 565.784 62.3467C565.541 62.3657 565.268 62.3499 564.941 62.2955C564.424 62.2094 564.074 61.7194 564.16 61.202C564.186 61.0484 564.247 60.9097 564.334 60.7927C564.54 60.5159 564.889 60.3613 565.253 60.4217C565.472 60.4582 565.586 60.4569 565.636 60.453C565.673 60.4502 565.692 60.4452 565.744 60.4281C566.066 60.3102 566.389 60.203 566.799 60.0996L566.81 60.0968L566.82 60.0948C567.829 59.865 568.802 59.6663 569.641 59.5682C570.179 59.5054 570.863 59.29 572.513 58.8132C573.276 58.5927 573.991 58.3597 574.581 58.007C575.252 57.6063 575.976 57.1083 576.299 56.7894C576.305 56.7839 576.31 56.7783 576.316 56.7728C576.805 56.29 577.245 55.8555 577.514 55.2557C577.661 54.9273 577.921 54.2087 578.13 53.3894C578.343 52.5553 578.475 51.7259 578.433 51.1388C578.366 50.1883 578.21 49.3589 578.088 48.712C578.082 48.6792 578.076 48.6467 578.07 48.6148C577.901 47.7178 577.567 46.1854 576.96 45.1086C576.469 44.2397 576.147 43.6513 575.863 43.2133C575.584 42.7842 575.403 42.5978 575.242 42.4895C574.902 42.2624 574.488 41.9507 574.19 41.7413C573.849 41.502 573.577 41.3332 573.358 41.2412C573.041 41.1085 572.327 40.8641 571.498 40.6736C570.658 40.4802 569.798 40.3653 569.153 40.4287C567.949 40.5473 567.327 40.7736 566.274 41.3905C565.431 41.8845 564.677 42.2413 563.659 42.8976C563.089 43.2657 562.507 43.6611 562.054 43.9782C561.827 44.1368 561.636 44.2733 561.496 44.3762C561.322 44.5043 561.296 44.5313 561.329 44.4984C561.193 44.6339 561.027 44.7193 560.852 44.7554C560.637 44.7999 560.41 44.7695 560.212 44.664C560.172 44.6427 560.133 44.6186 560.096 44.5911C560.057 44.5629 560.021 44.5313 559.986 44.4965C559.732 44.2422 559.653 43.88 559.747 43.5579C559.769 43.4834 559.799 43.411 559.84 43.3426C559.88 43.275 559.929 43.2113 559.987 43.1532C560.08 43.0608 560.249 42.9362 560.37 42.8468C560.526 42.7323 560.73 42.5862 560.965 42.4221C561.434 42.0936 562.036 41.6849 562.63 41.3017C563.666 40.6331 564.647 40.1419 565.314 39.7509C566.574 39.0128 567.457 38.6876 568.967 38.5389Z" fill="#4A6FD6"/>
<path d="M564.442 60.7542C564.946 60.6081 565.472 60.8986 565.619 61.4023C565.608 61.3671 565.61 61.3799 565.649 61.462C565.682 61.5306 565.73 61.6249 565.795 61.7381C565.924 61.9645 566.109 62.2523 566.341 62.5527C567.031 63.4474 567.719 64.6912 568.278 65.702C569.08 67.1501 569.655 68.5419 570.138 69.8636C570.72 71.4566 571.058 72.8929 571.304 74.1529C571.437 74.8313 571.406 75.7484 571.325 76.5791C571.242 77.4343 571.094 78.3098 570.939 78.9529C570.746 79.7565 570.195 80.6156 569.816 81.2239C569.493 81.7418 569.03 82.4622 568.517 83.0689C567.902 83.7958 567.085 84.2297 566.443 84.6521C565.722 85.1261 564.647 85.4733 563.266 85.6497C560.954 85.945 559.61 85.6025 558.444 85.5008C556.992 85.3741 555.998 85.1395 555.234 84.8651C554.506 84.6034 553.947 84.2809 553.604 84.1182C552.83 83.7512 552.183 83.3294 551.494 82.9528C550.566 82.4451 549.964 82.0203 549.496 81.5609C549.037 81.1098 548.736 80.6474 548.421 80.1963C547.812 79.324 547.337 78.6338 546.932 77.8834C546.557 77.1877 546.247 76.4942 545.743 75.1285C545.352 74.0727 545.262 73.1091 545.159 72.5444L545.154 72.521L545.152 72.4971C545.127 72.3073 545.112 72.1372 545.103 71.9686C545.099 71.8886 545.097 71.8052 545.093 71.7052C545.089 71.6009 545.082 71.4602 545.071 71.2453C545.044 70.7216 545.447 70.2749 545.97 70.2476C546.372 70.2269 546.728 70.4584 546.885 70.8035C546.932 70.9086 546.962 71.0243 546.968 71.1466C546.979 71.3701 546.986 71.5187 546.99 71.6302C546.992 71.6798 546.993 71.7192 546.995 71.7531C546.996 71.7983 546.998 71.8338 547 71.8708C547.006 71.9871 547.016 72.1032 547.033 72.2358C547.166 72.9789 547.215 73.6328 547.525 74.4702C548.012 75.7899 548.287 76.3938 548.604 76.9825C548.949 77.6224 549.362 78.2266 549.978 79.1084C550.336 79.621 550.523 79.9073 550.827 80.2059C551.123 80.4964 551.559 80.8238 552.406 81.2865C553.287 81.7684 553.687 82.055 554.417 82.4013C554.946 82.6519 555.259 82.8557 555.876 83.0777C556.459 83.2871 557.288 83.4934 558.609 83.6087C560.018 83.7316 560.983 84.0267 563.026 83.7658C564.256 83.6087 565.013 83.3184 565.4 83.0643C566.253 82.5036 566.684 82.2929 567.066 81.8416C567.483 81.349 567.884 80.731 568.203 80.2193C568.644 79.5104 568.987 78.9453 569.092 78.5087C569.224 77.9595 569.359 77.1721 569.434 76.3956C569.512 75.5941 569.517 74.909 569.441 74.5178C569.205 73.3149 568.89 71.9827 568.354 70.515C567.891 69.2477 567.354 67.9549 566.616 66.6225C566.035 65.5725 565.421 64.4692 564.837 63.7126C564.547 63.3371 564.315 62.9765 564.146 62.6814C563.993 62.4147 563.853 62.1328 563.795 61.9311C563.659 61.4645 563.898 60.9779 564.334 60.7925C564.369 60.7778 564.405 60.765 564.442 60.7542Z" fill="#4A6FD6"/>
<path d="M530.177 57.8211C530.689 57.7073 531.197 58.0299 531.311 58.5418C531.399 58.9409 531.223 59.3373 530.898 59.5466C530.806 59.6058 530.703 59.65 530.59 59.6751C530.426 59.7115 530.389 59.7351 530.189 59.8026C530.081 59.8389 529.87 59.8985 529.78 59.9248C529.303 60.1111 528.804 60.3661 528.361 60.6816C527.73 61.1315 527.088 61.42 526.48 61.6872C525.885 61.9491 525.459 62.084 524.959 62.5675C524.393 63.1147 523.999 63.4561 523.758 63.8365C523.395 64.4088 523.047 64.865 522.081 66.6333C521.619 67.4809 521.336 67.8048 521.066 68.5359C520.815 69.2165 520.604 70.2301 520.544 72.1417C520.5 73.5445 520.596 74.1408 520.69 74.7153C520.693 74.7333 520.696 74.7514 520.699 74.7694C520.791 75.3428 520.91 75.9393 521.082 76.4416C521.098 76.4884 521.114 76.5347 521.129 76.5805C521.313 77.1214 521.475 77.5972 521.781 78.0799C522.192 78.73 522.775 79.5517 523.203 80.0117C523.632 80.4731 524.113 80.9685 524.664 81.3649C524.873 81.5153 525.293 81.6961 525.875 81.8552C526.434 82.0078 527.053 82.117 527.59 82.1677C528.282 82.2331 528.965 82.2725 529.517 82.2011C529.93 82.1475 530.43 82.1499 530.752 82.1357C531.122 82.1192 531.437 82.0818 531.734 81.9802C532.817 81.6101 534.316 80.9752 534.98 80.5127C535.45 80.1857 536.098 79.7267 538.53 77.2106C540.151 75.5348 541.306 74.2272 542.234 73.2346C543.353 72.0375 544.048 71.305 544.317 71.0113C544.691 70.6021 544.951 70.2676 545.119 70.0283C545.296 69.7776 545.358 69.6526 545.354 69.6617C545.569 69.1833 546.131 68.97 546.609 69.1848C547.087 69.3998 547.301 69.9617 547.086 70.4401C547.049 70.523 546.983 70.6457 546.885 70.8034C546.668 71.1494 546.295 71.6637 545.719 72.2933C545.442 72.5963 544.722 73.3551 543.622 74.5321C542.744 75.4711 541.523 76.848 539.896 78.5315C537.428 81.0834 536.683 81.6428 536.066 82.072C535.169 82.6967 533.452 83.4009 532.348 83.7782C531.798 83.9662 531.273 84.0142 530.836 84.0336C530.35 84.0552 530.072 84.0445 529.76 84.0848C528.979 84.186 528.107 84.1242 527.411 84.0584C526.77 83.9979 526.043 83.87 525.375 83.6875C524.731 83.5113 524.044 83.259 523.554 82.9062C522.839 82.3916 522.25 81.7761 521.812 81.3057C521.264 80.7165 520.607 79.7779 520.176 79.0966C519.7 78.3449 519.469 77.5936 519.285 77.0559C519.06 76.3982 518.921 75.6742 518.823 75.0731C518.715 74.4047 518.594 73.6884 518.645 72.0828C518.708 70.0659 518.934 68.8255 519.284 67.878C519.615 66.981 520.098 66.3019 520.414 65.7229C521.418 63.8843 521.814 63.3555 522.154 62.8193C522.553 62.1899 523.202 61.6241 523.639 61.2017C524.439 60.4283 525.24 60.1577 525.716 59.9483C526.328 59.6792 526.805 59.4591 527.259 59.1355C527.859 58.708 528.512 58.3776 529.121 58.1427L529.15 58.1317L529.18 58.1217C529.415 58.0486 529.431 58.0528 529.582 58.002C529.66 57.9758 529.882 57.8867 530.177 57.8211Z" fill="#4A6FD6"/>
<path d="M526.835 32.7796C527.758 32.8307 531.111 33.3689 532.845 33.7206C533.561 33.8659 534.536 34.311 535.203 34.6084C535.81 34.8791 536.502 35.3479 537.031 35.6599C537.603 35.9975 538.163 36.3966 538.664 36.7676C539.306 37.244 539.801 37.8104 540.18 38.3485C540.307 38.5287 540.464 38.7024 540.66 38.9033C540.749 38.9952 540.856 39.1019 540.967 39.2153L541.308 39.5754C541.488 39.7794 541.675 39.9727 541.89 40.1937L541.904 40.2084L541.917 40.2228C542.053 40.3755 542.19 40.5526 542.303 40.6988C542.486 40.9341 542.54 41.228 542.478 41.4969C542.43 41.7015 542.314 41.8917 542.135 42.0306C541.721 42.3521 541.124 42.2774 540.802 41.863C540.681 41.7067 540.589 41.5876 540.507 41.4947C540.306 41.2876 540.096 41.0714 539.89 40.8384L539.612 40.5465C539.582 40.5156 539.551 40.4842 539.519 40.4519C539.45 40.3825 539.378 40.3091 539.299 40.2278C539.083 40.0066 538.843 39.7477 538.628 39.4429C538.333 39.0245 537.973 38.6198 537.532 38.2929C537.046 37.9325 536.551 37.5822 536.066 37.2965C535.358 36.8786 534.909 36.557 534.43 36.3434C533.669 36.0041 532.926 35.6753 532.467 35.5822C530.736 35.231 527.501 34.7189 526.729 34.6763C526.042 34.6383 525.557 34.5743 525.013 34.6362C524.28 34.7196 523.884 34.6934 523.383 34.8499C522.774 35.04 522.35 35.2678 521.692 35.5303C521.377 35.6559 521.093 35.7601 520.815 35.8995C520.538 36.0388 520.372 36.1645 520.287 36.2697C520.131 36.4643 519.844 36.8574 519.572 37.3174C519.292 37.7903 519.069 38.2648 518.984 38.638C518.783 39.5257 518.542 40.719 518.365 41.7804C518.277 42.3116 518.207 42.7997 518.165 43.1952C518.144 43.393 518.132 43.5592 518.127 43.6911C518.124 43.7566 518.124 43.8095 518.125 43.8498C518.126 43.8695 518.127 43.8851 518.128 43.8963C518.128 43.9072 518.129 43.9125 518.129 43.9125C518.203 44.4392 518.208 44.8693 518.215 45.2207C518.221 45.5763 518.23 45.8408 518.286 46.138C518.292 46.1679 518.298 46.1978 518.303 46.2278C518.434 46.9181 518.565 47.6149 518.794 48.2604C519.156 49.2815 519.587 50.1094 519.933 50.6445C520.365 51.3112 520.583 51.762 521.276 52.5702C521.316 52.6177 521.356 52.6641 521.395 52.7097C522.585 54.0994 523.019 54.6054 523.725 54.9666C524.151 55.1847 524.559 55.4421 524.931 55.6573C525.323 55.8839 525.773 56.1247 526.403 56.3877C528.051 57.0746 530.194 57.5126 531.062 57.6604C531.579 57.7485 531.927 58.239 531.839 58.7561C531.76 59.221 531.355 59.5493 530.898 59.5466C530.847 59.5463 530.795 59.5418 530.743 59.533C529.837 59.3787 527.523 58.9127 525.672 58.1412C524.947 57.8388 524.423 57.5572 523.98 57.3008C523.517 57.0331 523.23 56.847 522.86 56.6578C521.718 56.0736 521.01 55.1796 519.834 53.8066C519.032 52.8706 518.7 52.233 518.34 51.6773C517.908 51.0104 517.413 50.0483 517.004 48.8956C516.706 48.0567 516.549 47.1719 516.42 46.4922C516.331 46.021 516.322 45.612 516.316 45.256C516.309 44.8957 516.304 44.5751 516.248 44.1785C516.202 43.8547 516.232 43.4105 516.276 42.996C516.323 42.5481 516.4 42.0186 516.492 41.4681C516.675 40.3658 516.923 39.1367 517.131 38.2182C517.281 37.5565 517.622 36.8806 517.937 36.3495C518.259 35.8057 518.599 35.3399 518.805 35.0823C519.141 34.664 519.59 34.3892 519.963 34.202C520.336 34.0147 520.739 33.8653 520.988 33.7659C521.435 33.5879 522.131 33.2514 522.816 33.0374C523.545 32.8097 524.368 32.7978 524.798 32.749C525.553 32.6631 526.31 32.7507 526.835 32.7796Z" fill="#4A6FD6"/>
<path d="M550.755 48.4125L551.125 48.4877L551.146 48.4931L551.166 48.4983C551.443 48.5763 551.691 48.6591 551.93 48.7526L552.167 48.8503L552.223 48.874L552.276 48.9056C552.864 49.2529 553.438 49.6396 553.966 50.1633C554.36 50.5542 554.971 51.1255 555.258 51.9157C555.432 52.394 555.717 53.0613 555.881 53.7613C555.936 53.9982 556.096 54.4906 556.141 55.1444C556.188 55.8164 556.127 56.6618 555.842 57.8181C555.588 58.8468 555.405 59.6474 554.843 60.3529C554.586 60.6753 554.198 61.0366 553.748 61.3209C553.308 61.5987 552.708 61.8658 552.048 61.8511C551.46 61.8379 550.788 61.7605 550.194 61.6541C549.628 61.5528 549.026 61.4072 548.637 61.2189C548.06 60.9392 547.159 60.475 546.451 59.412C545.935 58.6375 545.377 57.8334 545.098 56.9689C544.908 56.3828 544.598 55.5941 544.674 54.7658C544.734 54.1134 544.84 53.3559 544.978 52.679C545.106 52.0473 545.288 51.3441 545.547 50.9009C546.065 50.017 546.768 48.9353 548.054 48.5926C548.456 48.4855 548.867 48.4376 549.199 48.4205C549.414 48.4095 549.629 48.4114 549.809 48.4237C549.979 48.3435 550.174 48.3118 550.373 48.3456C550.495 48.3664 550.626 48.3888 550.755 48.4125ZM550.26 50.2541C550.096 50.3256 549.911 50.3527 549.722 50.3206C549.715 50.3199 549.678 50.3158 549.603 50.3136C549.522 50.3112 549.417 50.3117 549.297 50.3179C549.053 50.3304 548.781 50.3644 548.543 50.4277C548.086 50.5496 547.721 50.948 547.186 51.8609C547.105 51.9984 546.971 52.4092 546.839 53.057C546.717 53.6595 546.62 54.3476 546.566 54.9382C546.535 55.2792 546.652 55.6039 546.905 56.3846C547.082 56.9335 547.448 57.4828 548.005 58.3188C548.014 58.3322 548.023 58.3457 548.032 58.3593C548.449 58.986 548.967 59.2676 549.466 59.5093C549.602 59.5753 549.981 59.6861 550.528 59.7842C551.048 59.8772 551.621 59.9418 552.09 59.9522C552.228 59.9553 552.453 59.8924 552.733 59.7154C553.003 59.5446 553.232 59.3255 553.357 59.1687C553.609 58.8532 553.715 58.5072 553.997 57.363C554.245 56.3554 554.277 55.7119 554.247 55.2773C554.215 54.825 554.125 54.5929 554.032 54.1937C553.902 53.6397 553.699 53.188 553.472 52.5639C553.358 52.2512 553.103 51.9827 552.628 51.5124C552.272 51.1591 551.865 50.873 551.366 50.575C551.149 50.4841 550.929 50.406 550.666 50.3317C550.555 50.3066 550.419 50.2818 550.26 50.2541Z" fill="#4A6FD6"/>
<path fill-rule="evenodd" clip-rule="evenodd" d="M549.722 50.3206C549.911 50.3527 550.096 50.3256 550.26 50.2541C550.419 50.2818 550.555 50.3066 550.666 50.3317C550.929 50.406 551.149 50.4841 551.366 50.575C551.865 50.873 552.272 51.1591 552.628 51.5124C553.103 51.9827 553.358 52.2512 553.472 52.5639C553.534 52.7359 553.595 52.8947 553.653 53.0463C553.805 53.4447 553.938 53.7924 554.032 54.1937C554.056 54.2953 554.079 54.3861 554.102 54.4725C554.167 54.7254 554.223 54.9402 554.247 55.2773C554.277 55.7119 554.245 56.3554 553.997 57.363C553.715 58.5072 553.609 58.8532 553.357 59.1687C553.232 59.3255 553.003 59.5446 552.733 59.7154C552.453 59.8924 552.228 59.9553 552.09 59.9522C551.621 59.9418 551.048 59.8772 550.528 59.7842C549.981 59.6861 549.602 59.5753 549.466 59.5093C548.967 59.2676 548.449 58.986 548.032 58.3593L548.005 58.3188C547.448 57.4828 547.082 56.9335 546.905 56.3846C546.885 56.3222 546.865 56.2627 546.847 56.2059C546.635 55.5519 546.537 55.252 546.566 54.9382C546.62 54.3476 546.717 53.6595 546.839 53.057C546.971 52.4092 547.105 51.9984 547.186 51.8609C547.721 50.948 548.086 50.5496 548.543 50.4277C548.781 50.3644 549.053 50.3304 549.297 50.3179C549.417 50.3117 549.522 50.3112 549.603 50.3136C549.673 50.3157 549.712 50.3196 549.722 50.3206Z" fill="#4A6FD6"/>
</svg>
