<svg width="109" height="109" viewBox="0 0 109 109" fill="none" xmlns="http://www.w3.org/2000/svg">
<path d="M61.4929 22.3118C64.2039 22.5718 66.4237 23.9842 67.9026 24.9823C68.6936 25.5161 69.4958 26.5738 70.0898 27.5599C71.3395 29.6344 71.2309 32.2839 71.2017 32.9895C71.1744 33.6468 71.1083 34.4292 70.4836 38.8613C70.1924 40.9275 69.6996 41.8717 69.4995 42.3771L69.4929 42.3939L69.4854 42.4105C69.2477 42.9492 69.042 43.3803 68.8725 43.6732L68.8671 43.6826L68.8608 43.6919C68.7832 43.8191 68.7183 43.9126 68.5269 44.272C68.4814 44.3574 68.4251 44.4334 68.3601 44.4985C68.228 44.6304 68.0609 44.7182 67.8826 44.7555C67.6728 44.7994 67.4469 44.7727 67.2428 44.664C67.2018 44.6422 67.1631 44.6178 67.1267 44.5912C67.0872 44.5623 67.0507 44.5305 67.0169 44.4966C66.7736 44.2531 66.679 43.8921 66.7778 43.5579C66.7957 43.4974 66.8199 43.4378 66.8507 43.3799C66.8575 43.3672 66.8641 43.3548 66.8706 43.3427C67.0463 43.0145 67.1387 42.8656 67.2051 42.7587C67.2131 42.7458 67.2207 42.7335 67.2281 42.7216C67.3426 42.5237 67.514 42.1724 67.7475 41.6433C67.9678 41.0972 68.3542 40.3608 68.6029 38.5958C69.2308 34.1409 69.2806 33.4566 69.3033 32.911C69.334 32.1698 69.3839 30.0688 68.4628 28.5399C67.9001 27.6058 67.2725 26.8491 66.8396 26.557C65.3716 25.5662 63.5016 24.4131 61.3112 24.203C60.58 24.1328 59.6562 24.053 58.7673 24.0202C57.8575 23.9867 57.0613 24.0061 56.5533 24.1044C56.061 24.1997 55.4605 24.2714 55.2031 24.315C54.8621 24.3727 54.7068 24.4307 54.6035 24.4989C54.1146 24.8223 53.5997 25.2321 53.0503 25.77C52.4664 26.3417 51.8696 26.9866 51.5361 27.569C51.126 28.285 50.8354 28.7416 50.6278 29.2462C50.3402 29.9454 50.1074 30.5902 49.9856 31.1568C49.8144 31.9531 49.6163 32.9617 49.4653 33.8766C49.3087 34.8256 49.22 35.5749 49.2317 35.9123C49.267 36.9183 49.3061 37.612 49.4578 38.4534C49.7333 39.9805 49.7393 40.7211 49.696 41.0455C49.6731 41.216 49.6064 41.3699 49.5085 41.4973C49.3082 41.7581 48.9778 41.9077 48.6286 41.8611C48.1089 41.7915 47.7436 41.3134 47.813 40.7937C47.8135 40.7868 47.8252 40.6574 47.8019 40.3392C47.778 40.0152 47.7195 39.5181 47.5884 38.791C47.4112 37.8086 47.3699 37.0018 47.3341 35.9789C47.3146 35.4207 47.4399 34.484 47.5912 33.5671C47.7482 32.6154 47.9525 31.5767 48.1285 30.758C48.287 30.0208 48.5725 29.2488 48.8712 28.5229C49.1407 27.8679 49.5365 27.238 49.8875 26.6251C50.3633 25.7943 51.1306 24.9914 51.7214 24.413C52.3514 23.7961 52.9599 23.3092 53.556 22.915C53.9984 22.6225 54.4743 22.512 54.8858 22.4423C55.3812 22.3585 55.6543 22.3436 56.1923 22.2395C56.9292 22.0968 57.9119 22.0881 58.8372 22.1223C59.783 22.1572 60.7511 22.2406 61.4929 22.3118Z" fill="currentColor"/>
<path d="M75.9977 38.539C76.9506 38.4452 78.0498 38.6139 78.9555 38.8222C79.8735 39.0333 80.6929 39.3088 81.1234 39.4894C81.5449 39.6663 81.9591 39.9394 82.3123 40.1876C82.7082 40.4657 82.996 40.6877 83.3295 40.9111C83.8068 41.2308 84.1558 41.6686 84.4872 42.1797C84.8129 42.6821 85.1797 43.3506 85.6453 44.1757C86.425 45.5576 86.8009 47.3777 86.9674 48.2647C87.0887 48.911 87.2793 49.88 87.3592 51.0042C87.423 51.9032 87.2276 52.9729 87.0011 53.8599C86.771 54.7614 86.4789 55.5864 86.2784 56.0334C85.8373 57.017 85.1189 57.6932 84.6645 58.1418C84.1645 58.6354 83.2651 59.2318 82.5857 59.6377C81.7641 60.1285 80.8375 60.4164 80.0709 60.6379C78.5483 61.0778 77.6345 61.3679 76.893 61.4546C76.1657 61.5397 75.2817 61.7172 74.2943 61.9419L74.0538 62.0063C73.8247 62.0716 73.6229 62.1401 73.4059 62.2197L73.3908 62.2256L73.3759 62.2306C73.2539 62.2708 73.0707 62.3269 72.8151 62.3468C72.5717 62.3658 72.299 62.35 71.9724 62.2956C71.455 62.2095 71.1052 61.7195 71.1913 61.2021C71.2169 61.0485 71.2781 60.9098 71.3649 60.7928C71.5705 60.516 71.9201 60.3614 72.2838 60.4218C72.5033 60.4584 72.6166 60.457 72.667 60.4531C72.7035 60.4503 72.7225 60.4453 72.7747 60.4282C73.0974 60.3103 73.4201 60.2031 73.8298 60.0997L73.8406 60.0969L73.8513 60.0949C74.8598 59.8651 75.8333 59.6664 76.6721 59.5683C77.2097 59.5055 77.8938 59.2901 79.5441 58.8133C80.3073 58.5928 81.0215 58.3598 81.6119 58.0071C82.2826 57.6064 83.0071 57.1084 83.3301 56.7895C83.3357 56.784 83.3413 56.7784 83.3469 56.7729C83.8359 56.2901 84.2761 55.8556 84.5451 55.2558C84.6923 54.9274 84.9518 54.2088 85.161 53.3895C85.3739 52.5554 85.5057 51.7261 85.464 51.1389C85.3965 50.1884 85.2405 49.359 85.1188 48.7121C85.1126 48.6793 85.1065 48.6468 85.1005 48.6149C84.9321 47.7179 84.5983 46.1855 83.9906 45.1087C83.5003 44.2398 83.1775 43.6514 82.8934 43.2134C82.6152 42.7843 82.434 42.5979 82.2724 42.4896C81.9334 42.2625 81.519 41.9509 81.2209 41.7414C80.8802 41.5021 80.6078 41.3333 80.3887 41.2413C80.0724 41.1086 79.3577 40.8642 78.5293 40.6737C77.6886 40.4803 76.8287 40.3655 76.1841 40.4288C74.9797 40.5474 74.358 40.7737 73.3052 41.3906C72.462 41.8846 71.7074 42.2414 70.6901 42.8977C70.1194 43.2658 69.5376 43.6612 69.0846 43.9783C68.8581 44.1369 68.6664 44.2734 68.5267 44.3763C68.3527 44.5044 68.3271 44.5314 68.36 44.4985C68.2242 44.634 68.0574 44.7194 67.8826 44.7556C67.6677 44.8 67.4406 44.7696 67.2427 44.6641C67.2028 44.6428 67.1639 44.6187 67.1267 44.5912C67.0883 44.563 67.0516 44.5314 67.0169 44.4966C66.7631 44.2423 66.6836 43.8801 66.7778 43.558C66.7996 43.4835 66.8302 43.4111 66.8706 43.3427C66.9105 43.2751 66.9596 43.2114 67.0178 43.1533C67.1104 43.061 67.2797 42.9363 67.4011 42.8469C67.5567 42.7324 67.7611 42.5863 67.9956 42.4222C68.4648 42.0937 69.0665 41.685 69.6605 41.3018C70.6969 40.6332 71.6778 40.142 72.3452 39.751C73.605 39.013 74.4877 38.6877 75.9977 38.539Z" fill="currentColor"/>
<path d="M71.4725 60.7545C71.9762 60.6084 72.5031 60.8989 72.6493 61.4026C72.639 61.3675 72.6403 61.3803 72.6796 61.4624C72.7124 61.531 72.7607 61.6252 72.8254 61.7384C72.955 61.9649 73.1399 62.2526 73.3717 62.553C74.0621 63.4477 74.7497 64.6915 75.3092 65.7024C76.1106 67.1504 76.6856 68.5422 77.1684 69.864C77.7502 71.457 78.0884 72.8933 78.3351 74.1532C78.4679 74.8316 78.4369 75.7487 78.3559 76.5794C78.2725 77.4346 78.1244 78.3101 77.9698 78.9533C77.7765 79.7569 77.2254 80.6159 76.8466 81.2242C76.5241 81.7422 76.0609 82.4625 75.5475 83.0692C74.9323 83.7962 74.1162 84.23 73.4736 84.6524C72.7525 85.1265 71.6779 85.4737 70.2969 85.6501C67.9848 85.9453 66.6403 85.6029 65.4751 85.5012C64.0223 85.3744 63.0288 85.1398 62.265 84.8654C61.5365 84.6037 60.978 84.2812 60.6347 84.1185C59.8604 83.7516 59.2137 83.3297 58.5252 82.9532C57.5967 82.4455 56.9943 82.0207 56.5267 81.5612C56.0676 81.1101 55.7672 80.6478 55.4521 80.1966C54.8428 79.3243 54.3678 78.6342 53.9631 77.8838C53.5879 77.1881 53.2782 76.4945 52.7733 75.1288C52.3831 74.0731 52.2926 73.1095 52.1895 72.5447L52.185 72.5214L52.1825 72.4974C52.1577 72.3076 52.1428 72.1376 52.1342 71.9689C52.13 71.8889 52.1274 71.8055 52.1235 71.7056C52.1194 71.6012 52.1131 71.4605 52.102 71.2456C52.0749 70.7219 52.4773 70.2752 53.001 70.248C53.4025 70.2272 53.7587 70.4587 53.9153 70.8038C53.9631 70.9089 53.9923 71.0246 53.9986 71.1469C54.0102 71.3704 54.0163 71.5191 54.0207 71.6305C54.0227 71.6801 54.0241 71.7195 54.0254 71.7534C54.0272 71.7987 54.0287 71.8341 54.0306 71.8711C54.0366 71.9875 54.0465 72.1035 54.0635 72.2361C54.197 72.9792 54.2458 73.6332 54.5553 74.4706C55.0431 75.7902 55.3175 76.3942 55.635 76.9829C55.9801 77.6227 56.3931 78.2269 57.009 79.1087C57.367 79.6213 57.5541 79.9077 57.858 80.2063C58.1536 80.4967 58.5902 80.8241 59.4363 81.2868C60.3176 81.7687 60.7173 82.0553 61.4481 82.4016C61.9769 82.6522 62.2894 82.8561 62.907 83.078C63.4898 83.2874 64.3187 83.4937 65.64 83.609C67.0487 83.7319 68.014 84.027 70.0568 83.7661C71.2868 83.609 72.0439 83.3187 72.4304 83.0646C73.2834 82.5039 73.7148 82.2933 74.0968 81.842C74.5137 81.3493 74.9151 80.7313 75.2337 80.2197C75.6752 79.5108 76.0173 78.9456 76.1223 78.509C76.2544 77.9598 76.3893 77.1725 76.465 76.3959C76.5432 75.5944 76.5479 74.9093 76.4713 74.5181C76.2358 73.3153 75.9208 71.983 75.3847 70.5153C74.9219 69.2481 74.3846 67.9553 73.6472 66.6228C73.066 65.5728 72.4513 64.4695 71.8675 63.7129C71.5778 63.3375 71.3453 62.9768 71.1765 62.6818C71.0239 62.415 70.8838 62.1331 70.8253 61.9314C70.69 61.4648 70.9285 60.9782 71.3648 60.7929C71.3995 60.7781 71.4354 60.7653 71.4725 60.7545Z" fill="currentColor"/>
<path d="M37.208 57.8216C37.7199 57.7078 38.2275 58.0304 38.3414 58.5422C38.43 58.9414 38.2535 59.3378 37.9288 59.5471C37.8371 59.6063 37.7335 59.6505 37.6207 59.6756C37.4567 59.712 37.4198 59.7356 37.2198 59.8031C37.1121 59.8394 36.9005 59.899 36.8105 59.9253C36.3333 60.1116 35.8343 60.3665 35.3918 60.6821C34.7607 61.132 34.1187 61.4205 33.5112 61.6876C32.9155 61.9495 32.4897 62.0845 31.9896 62.568C31.4236 63.1152 31.0298 63.4566 30.7886 63.837C30.4257 64.4093 30.0777 64.8655 29.1121 66.6338C28.6493 67.4814 28.3667 67.8053 28.0968 68.5364C27.8455 69.2169 27.6344 70.2305 27.5744 72.1421C27.5303 73.545 27.6272 74.1413 27.7205 74.7158C27.7234 74.7338 27.7264 74.7519 27.7293 74.7699C27.8221 75.3433 27.941 75.9398 28.1127 76.4421C28.1287 76.4889 28.1444 76.5352 28.16 76.581C28.3439 77.1218 28.5057 77.5977 28.8113 78.0804C29.2231 78.7305 29.8056 79.5522 30.2335 80.0122C30.6626 80.4736 31.1442 80.969 31.6947 81.3654C31.9037 81.5158 32.3241 81.6966 32.9059 81.8557C33.4643 82.0083 34.0839 82.1175 34.6205 82.1682C35.3124 82.2335 35.9962 82.273 36.5473 82.2016C36.9612 82.148 37.461 82.1504 37.7824 82.1362C38.1532 82.1197 38.4674 82.0823 38.7648 81.9807C39.8479 81.6106 41.3466 80.9757 42.0111 80.5132C42.4808 80.1862 43.1285 79.7272 45.5611 77.2111C47.1814 75.5353 48.3363 74.2277 49.2644 73.2351C50.3839 72.038 51.079 71.3055 51.3476 71.0118C51.7218 70.6026 51.9814 70.2681 52.15 70.0287C52.3265 69.7781 52.3886 69.6531 52.3845 69.6622C52.5995 69.1838 53.1614 68.9704 53.6398 69.1853C54.1182 69.4003 54.3316 69.9622 54.1168 70.4406C54.0795 70.5235 54.0138 70.6462 53.9153 70.8038C53.6991 71.1499 53.3253 71.6642 52.7495 72.2937C52.4724 72.5968 51.753 73.3556 50.6524 74.5326C49.7744 75.4716 48.554 76.8484 46.9263 78.532C44.4591 81.0839 43.7133 81.6433 43.0967 82.0725C42.1993 82.6972 40.483 83.4014 39.3789 83.7787C38.8284 83.9667 38.3038 84.0147 37.8668 84.0341C37.3803 84.0557 37.1024 84.0449 36.7912 84.0853C36.0094 84.1865 35.138 84.1247 34.4417 84.0589C33.8008 83.9984 33.0738 83.8705 32.4059 83.688C31.7613 83.5118 31.0747 83.2594 30.5847 82.9067C29.8701 82.3921 29.2803 81.7766 28.8428 81.3062C28.2948 80.717 27.6379 79.7784 27.2064 79.0971C26.7303 78.3454 26.4994 77.5941 26.3156 77.0563C26.0908 76.3987 25.9516 75.6747 25.8543 75.0736C25.746 74.4051 25.6251 73.6889 25.6754 72.0833C25.7388 70.0663 25.965 68.826 26.3149 67.8785C26.6461 66.9815 27.1285 66.3024 27.4447 65.7234C28.4486 63.8848 28.8444 63.356 29.1845 62.8198C29.5836 62.1904 30.2328 61.6246 30.6697 61.2022C31.4697 60.4288 32.2705 60.1582 32.7468 59.9487C33.3589 59.6797 33.8359 59.4596 34.2898 59.136C34.8893 58.7085 35.5428 58.378 36.1513 58.1432L36.1805 58.1321L36.2104 58.1222C36.4453 58.0491 36.4621 58.0533 36.6127 58.0025C36.6903 57.9763 36.9125 57.8872 37.208 57.8216Z" fill="currentColor"/>
<path d="M33.8657 32.7801C34.7888 32.8312 38.1421 33.3693 39.8755 33.7211C40.5913 33.8664 41.5669 34.3115 42.2336 34.6088C42.8406 34.8796 43.5324 35.3484 44.0614 35.6603C44.634 35.998 45.194 36.397 45.6943 36.768C46.3367 37.2445 46.8316 37.8109 47.2109 38.349C47.338 38.5292 47.4948 38.7029 47.6904 38.9038C47.7799 38.9957 47.8864 39.1024 47.9977 39.2158L48.339 39.5759C48.5189 39.7798 48.7062 39.9732 48.9206 40.1942L48.9351 40.2089L48.9477 40.2233C49.084 40.3759 49.2208 40.553 49.3342 40.6992C49.5167 40.9346 49.5712 41.2284 49.5084 41.4973C49.4606 41.702 49.3449 41.8921 49.1659 42.031C48.7515 42.3525 48.1546 42.2779 47.8331 41.8635C47.7118 41.7071 47.6197 41.5881 47.5373 41.4951C47.3364 41.2881 47.1266 41.0718 46.9208 40.8389L46.643 40.547C46.6126 40.5161 46.5815 40.4846 46.5496 40.4524C46.4811 40.383 46.4085 40.3095 46.3294 40.2283C46.1141 40.0071 45.8735 39.7481 45.6586 39.4433C45.3637 39.0249 45.0033 38.6202 44.5626 38.2934C44.0766 37.933 43.5814 37.5826 43.097 37.2969C42.3883 36.879 41.9393 36.5575 41.4604 36.3438C40.6997 36.0045 39.9566 35.6758 39.4975 35.5826C37.7672 35.2315 34.532 34.7193 33.7602 34.6767C33.0726 34.6388 32.588 34.5748 32.0435 34.6367C31.3104 34.7201 30.9143 34.6938 30.4133 34.8504C29.805 35.0404 29.3806 35.2682 28.7226 35.5307C28.4076 35.6563 28.1234 35.7606 27.8459 35.8999C27.5685 36.0393 27.4026 36.165 27.3182 36.2702C27.1621 36.4648 26.8752 36.8579 26.6027 37.3178C26.3224 37.7908 26.0993 38.2652 26.0147 38.6384C25.8136 39.5261 25.5726 40.7195 25.3962 41.7809C25.3079 42.3121 25.2375 42.8002 25.1958 43.1956C25.175 43.3935 25.1624 43.5597 25.1575 43.6915C25.1551 43.7571 25.1549 43.8099 25.1559 43.8503C25.1565 43.87 25.1575 43.8856 25.1584 43.8968C25.1592 43.9077 25.1594 43.9129 25.1594 43.9129C25.2339 44.4397 25.2388 44.8697 25.2453 45.2212C25.252 45.5768 25.2607 45.8412 25.3169 46.1384C25.3225 46.1684 25.3283 46.1983 25.3339 46.2282C25.4644 46.9185 25.596 47.6154 25.825 48.2609C26.1872 49.282 26.6173 50.1098 26.9641 50.645C27.3961 51.3117 27.6139 51.7625 28.3063 52.5707C28.347 52.6181 28.3868 52.6646 28.4258 52.7101C29.6161 54.0999 30.0494 54.6058 30.7557 54.967C31.1821 55.1851 31.5901 55.4426 31.9619 55.6578C32.3533 55.8844 32.8033 56.1251 33.4342 56.3882C35.0816 57.0751 37.2245 57.5131 38.0929 57.6609C38.6099 57.749 38.9579 58.2395 38.8699 58.7565C38.7906 59.2214 38.3856 59.5497 37.9288 59.547C37.8778 59.5467 37.8262 59.5423 37.7742 59.5335C36.8676 59.3792 34.5534 58.9132 32.703 58.1416C31.9779 57.8393 31.4533 57.5577 31.0104 57.3013C30.548 57.0336 30.261 56.8474 29.8912 56.6583C28.7488 56.074 28.0407 55.1801 26.8643 53.8071C26.0624 52.871 25.7306 52.2335 25.3705 51.6777C24.9383 51.0108 24.4436 50.0487 24.0347 48.8961C23.7371 48.0572 23.5798 47.1723 23.4512 46.4927C23.362 46.0215 23.353 45.6124 23.3464 45.2565C23.3396 44.8962 23.3346 44.5756 23.2786 44.179C23.2328 43.8551 23.263 43.4109 23.3067 42.9964C23.3539 42.5486 23.431 42.0191 23.5225 41.4686C23.7058 40.3663 23.9541 39.1372 24.1622 38.2187C24.3121 37.5569 24.6529 36.881 24.9676 36.3499C25.2898 35.8062 25.6297 35.3404 25.8362 35.0827C26.1715 34.6645 26.6208 34.3897 26.9936 34.2025C27.3667 34.0151 27.7699 33.8658 28.019 33.7664C28.4653 33.5883 29.162 33.2519 29.8468 33.0379C30.5755 32.8102 31.399 32.7983 31.8284 32.7495C32.5839 32.6635 33.3408 32.7511 33.8657 32.7801Z" fill="currentColor"/>
<path d="M57.7856 48.4126L58.1557 48.4879L58.1764 48.4933L58.1962 48.4985C58.4738 48.5765 58.7211 48.6592 58.9602 48.7527L59.1976 48.8505L59.2538 48.8742L59.3067 48.9058C59.8942 49.2531 60.4688 49.6398 60.9969 50.1634C61.3911 50.5544 62.0017 51.1257 62.2886 51.9159C62.4623 52.3942 62.7477 53.0615 62.9116 53.7615C62.967 53.9983 63.1262 54.4908 63.172 55.1446C63.2191 55.8165 63.1573 56.662 62.8722 57.8182C62.6186 58.8469 62.4358 59.6476 61.8735 60.3531C61.6165 60.6755 61.2283 61.0368 60.7782 61.3211C60.3385 61.5989 59.739 61.866 59.0783 61.8513C58.4909 61.8381 57.8182 61.7606 57.2245 61.6543C56.6591 61.553 56.0569 61.4074 55.6681 61.2191C55.0905 60.9394 54.1893 60.4752 53.4815 59.4122C52.9658 58.6377 52.4081 57.8336 52.1285 56.9691C51.939 56.383 51.629 55.5943 51.7047 54.766C51.7645 54.1136 51.8707 53.3561 52.0082 52.6792C52.1364 52.0475 52.3183 51.3443 52.578 50.9011C53.0959 50.0172 53.7987 48.9354 55.0849 48.5928C55.487 48.4856 55.8975 48.4378 56.23 48.4207C56.4449 48.4097 56.6591 48.4116 56.84 48.4239C57.0098 48.3437 57.2046 48.312 57.4037 48.3458C57.5257 48.3665 57.6568 48.389 57.7856 48.4126ZM57.2906 50.2543C57.1269 50.3257 56.9416 50.3529 56.7524 50.3207C56.7461 50.3201 56.7083 50.316 56.6341 50.3138C56.5525 50.3113 56.4473 50.3119 56.3276 50.3181C56.0834 50.3306 55.8116 50.3646 55.5741 50.4279C55.1164 50.5498 54.7512 50.9482 54.2163 51.8611C54.1357 51.9986 54.0012 52.4094 53.8697 53.0572C53.7474 53.6597 53.6506 54.3478 53.5966 54.9384C53.5653 55.2794 53.6831 55.6041 53.9356 56.3848C54.1131 56.9337 54.4789 57.4829 55.0356 58.319C55.0445 58.3324 55.0535 58.3459 55.0625 58.3594C55.4798 58.9861 55.9972 59.2678 56.4963 59.5095C56.6329 59.5755 57.0113 59.6863 57.5587 59.7844C58.0782 59.8774 58.6519 59.9419 59.1211 59.9524C59.2583 59.9554 59.4832 59.8926 59.7635 59.7155C60.0338 59.5448 60.2631 59.3257 60.3881 59.1689C60.6395 58.8534 60.7454 58.5074 61.0275 57.3632C61.2759 56.3556 61.3076 55.7121 61.2771 55.2775C61.2455 54.8252 61.1561 54.5931 61.0627 54.1938C60.933 53.6399 60.7293 53.1882 60.5027 52.5641C60.3891 52.2514 60.1333 51.9829 59.659 51.5126C59.3027 51.1593 58.8957 50.8732 58.3969 50.5752C58.1793 50.4843 57.9594 50.4062 57.697 50.3319C57.5859 50.3068 57.4499 50.282 57.2906 50.2543Z" fill="currentColor"/>
<path fill-rule="evenodd" clip-rule="evenodd" d="M56.7524 50.3207C56.9416 50.3529 57.1269 50.3257 57.2906 50.2543C57.4499 50.282 57.5859 50.3068 57.697 50.3319C57.9594 50.4062 58.1793 50.4843 58.3969 50.5752C58.8957 50.8732 59.3027 51.1593 59.659 51.5126C60.1333 51.9829 60.3891 52.2514 60.5027 52.5641C60.5651 52.736 60.6258 52.8949 60.6837 53.0465C60.8359 53.4449 60.9687 53.7925 61.0627 54.1938C61.0865 54.2955 61.11 54.3863 61.1324 54.4727C61.1979 54.7256 61.2535 54.9403 61.2771 55.2775C61.3076 55.7121 61.2759 56.3556 61.0275 57.3632C60.7454 58.5074 60.6395 58.8534 60.3881 59.1689C60.2631 59.3257 60.0338 59.5448 59.7635 59.7155C59.4832 59.8926 59.2583 59.9554 59.1211 59.9524C58.6519 59.9419 58.0782 59.8774 57.5587 59.7844C57.0113 59.6863 56.6329 59.5755 56.4963 59.5095C55.9972 59.2678 55.4798 58.9861 55.0625 58.3594L55.0356 58.319C54.4789 57.4829 54.1131 56.9337 53.9356 56.3848C53.9154 56.3224 53.8961 56.2629 53.8776 56.2061C53.6653 55.5521 53.5678 55.2522 53.5966 54.9384C53.6506 54.3478 53.7474 53.6597 53.8697 53.0572C54.0012 52.4094 54.1357 51.9986 54.2163 51.8611C54.7512 50.9482 55.1164 50.5498 55.5741 50.4279C55.8116 50.3646 56.0834 50.3306 56.3276 50.3181C56.4473 50.3119 56.5525 50.3113 56.6341 50.3138C56.7039 50.3159 56.7429 50.3198 56.7524 50.3207Z" fill="currentColor"/>
</svg>
