<svg viewBox="0 0 69 68" fill="none" xmlns="http://www.w3.org/2000/svg">
<path d="M40.5575 2.0074C43.2684 2.26748 45.4883 3.67983 46.9672 4.67795C47.7582 5.21176 48.5603 6.26943 49.1544 7.25548C50.404 9.32999 50.2955 11.9795 50.2662 12.6851C50.239 13.3424 50.1728 14.1248 49.5482 18.5569C49.257 20.6232 48.7642 21.5674 48.5641 22.0728L48.5575 22.0895L48.55 22.1061C48.3122 22.6448 48.1066 23.0759 47.9371 23.3688L47.9317 23.3783L47.9254 23.3875C47.8478 23.5147 47.7828 23.6082 47.5915 23.9676C47.546 24.0531 47.4897 24.1291 47.4246 24.1941C47.2926 24.3261 47.1255 24.4139 46.9472 24.4511C46.7373 24.495 46.5115 24.4684 46.3073 24.3597C46.2664 24.3379 46.2276 24.3135 46.1913 24.2868C46.1518 24.2579 46.1153 24.2261 46.0815 24.1922C45.8382 23.9487 45.7436 23.5878 45.8424 23.2535C45.8603 23.193 45.8845 23.1334 45.9153 23.0755C45.922 23.0629 45.9287 23.0505 45.9352 23.0383C46.1108 22.7102 46.2033 22.5612 46.2696 22.4543C46.2777 22.4414 46.2853 22.4291 46.2927 22.4172C46.4071 22.2194 46.5786 21.8681 46.812 21.339C47.0323 20.7929 47.4188 20.0565 47.6675 18.2914C48.2954 13.8365 48.3452 13.1523 48.3678 12.6066C48.3986 11.8655 48.4484 9.76447 47.5274 8.23553C46.9646 7.30139 46.3371 6.54474 45.9042 6.25261C44.4362 5.26185 42.5662 4.10872 40.3758 3.89859C39.6445 3.82844 38.7208 3.74868 37.8318 3.71588C36.9221 3.68232 36.1259 3.70171 35.6178 3.80008C35.1256 3.89537 34.525 3.96706 34.2677 4.0106C33.9267 4.06831 33.7714 4.12636 33.6681 4.19457C33.1792 4.51789 32.6643 4.92773 32.1149 5.46564C31.5309 6.03738 30.9342 6.6822 30.6007 7.26458C30.1906 7.98059 29.9 8.43724 29.6924 8.94179C29.4047 9.64108 29.172 10.2859 29.0502 10.8524C28.879 11.6488 28.6809 12.6574 28.5299 13.5723C28.3733 14.5212 28.2846 15.2705 28.2963 15.608C28.3315 16.6139 28.3707 17.3076 28.5224 18.149C28.7979 19.6762 28.8038 20.4167 28.7605 20.7411C28.7377 20.9116 28.6709 21.0656 28.5731 21.1929C28.3728 21.4537 28.0424 21.6033 27.6931 21.5567C27.1735 21.4871 26.8082 21.0091 26.8775 20.4893C26.8781 20.4824 26.8898 20.353 26.8664 20.0349C26.8426 19.7108 26.7841 19.2137 26.6529 18.4866C26.4758 17.5042 26.4344 16.6975 26.3986 15.6745C26.3792 15.1164 26.5044 14.1796 26.6558 13.2627C26.8128 12.311 27.0171 11.2723 27.1931 10.4536C27.3516 9.71647 27.6371 8.94447 27.9357 8.2185C28.2052 7.5635 28.6011 6.93365 28.9521 6.32073C29.4279 5.48998 30.1952 4.68706 30.7859 4.1086C31.4159 3.49174 32.0245 3.00485 32.6205 2.61068C33.0629 2.31814 33.5389 2.20763 33.9504 2.13798C34.4458 2.05415 34.7189 2.03925 35.2569 1.93509C35.9938 1.79241 36.9765 1.78377 37.9018 1.81791C38.8476 1.8528 39.8157 1.93624 40.5575 2.0074Z" fill="currentColor"/>
<path d="M55.0623 18.2346C56.0152 18.1408 57.1144 18.3096 58.02 18.5178C58.9381 18.729 59.7575 19.0044 60.188 19.1851C60.6094 19.3619 61.0236 19.635 61.3769 19.8832C61.7728 20.1613 62.0605 20.3833 62.3941 20.6067C62.8714 20.9264 63.2203 21.3643 63.5518 21.8753C63.8775 22.3777 64.2442 23.0462 64.7098 23.8713C65.4896 25.2532 65.8655 27.0733 66.032 27.9603C66.1533 28.6067 66.3439 29.5757 66.4238 30.6999C66.4876 31.5988 66.2922 32.6685 66.0657 33.5555C65.8355 34.457 65.5434 35.282 65.343 35.729C64.9019 36.7127 64.1834 37.3889 63.7291 37.8375C63.2291 38.331 62.3297 38.9274 61.6502 39.3333C60.8287 39.8241 59.902 40.112 59.1355 40.3335C57.6129 40.7734 56.699 41.0635 55.9576 41.1503C55.2303 41.2353 54.3463 41.4129 53.3589 41.6375L53.1184 41.702C52.8893 41.7673 52.6875 41.8357 52.4705 41.9153L52.4554 41.9212L52.4404 41.9262C52.3185 41.9664 52.1353 42.0225 51.8797 42.0425C51.6363 42.0615 51.3636 42.0456 51.037 41.9912C50.5195 41.9051 50.1697 41.4151 50.2559 40.8977C50.2815 40.7442 50.3426 40.6054 50.4295 40.4885C50.6351 40.2116 50.9847 40.057 51.3483 40.1174C51.5679 40.154 51.6812 40.1527 51.7316 40.1488C51.7681 40.1459 51.7871 40.1409 51.8393 40.1238C52.1619 40.0059 52.4847 39.8988 52.8944 39.7954L52.9052 39.7925L52.9159 39.7906C53.9244 39.5607 54.8978 39.362 55.7367 39.264C56.2743 39.2011 56.9584 38.9858 58.6087 38.509C59.3719 38.2885 60.0861 38.0554 60.6764 37.7027C61.3471 37.302 62.0717 36.804 62.3946 36.4851C62.4003 36.4796 62.4059 36.4741 62.4115 36.4685C62.9005 35.9858 63.3407 35.5513 63.6097 34.9514C63.7569 34.623 64.0164 33.9045 64.2255 33.0852C64.4385 32.2511 64.5702 31.4217 64.5286 30.8346C64.4611 29.884 64.3051 29.0546 64.1834 28.4078C64.1772 28.3749 64.1711 28.3425 64.1651 28.3105C63.9967 27.4135 63.6628 25.8811 63.0551 24.8043C62.5648 23.9355 62.242 23.3471 61.958 22.909C61.6797 22.4799 61.4986 22.2935 61.337 22.1852C60.9979 21.9581 60.5836 21.6465 60.2855 21.4371C59.9448 21.1977 59.6724 21.0289 59.4533 20.937C59.1369 20.8042 58.4223 20.5598 57.5939 20.3693C56.7532 20.176 55.8932 20.0611 55.2487 20.1245C54.0443 20.2431 53.4226 20.4694 52.3698 21.0862C51.5265 21.5802 50.772 21.937 49.7546 22.5933C49.184 22.9614 48.6021 23.3568 48.1491 23.6739C47.9227 23.8325 47.731 23.9691 47.5912 24.072C47.4173 24.2 47.3916 24.227 47.4246 24.1941C47.2888 24.3296 47.122 24.415 46.9472 24.4512C46.7322 24.4956 46.5051 24.4652 46.3073 24.3597C46.2673 24.3384 46.2284 24.3143 46.1912 24.2869C46.1529 24.2586 46.1161 24.2271 46.0814 24.1923C45.8277 23.9379 45.7482 23.5757 45.8424 23.2536C45.8641 23.1791 45.8948 23.1067 45.9352 23.0384C45.9751 22.9707 46.0242 22.907 46.0824 22.8489C46.175 22.7566 46.3442 22.632 46.4657 22.5425C46.6213 22.428 46.8257 22.2819 47.0601 22.1178C47.5293 21.7893 48.1311 21.3806 48.7251 20.9975C49.7615 20.3289 50.7424 19.8377 51.4098 19.4466C52.6695 18.7086 53.5522 18.3833 55.0623 18.2346Z" fill="currentColor"/>
<path d="M50.5371 40.4502C51.0408 40.3041 51.5677 40.5946 51.7138 41.0983C51.7036 41.0631 51.7049 41.0759 51.7441 41.158C51.7769 41.2266 51.8252 41.3208 51.89 41.434C52.0196 41.6605 52.2045 41.9482 52.4363 42.2486C53.1267 43.1434 53.8142 44.3872 54.3737 45.398C55.1752 46.8461 55.7502 48.2378 56.233 49.5596C56.8148 51.1526 57.153 52.5889 57.3997 53.8489C57.5325 54.5273 57.5014 55.4443 57.4205 56.275C57.3371 57.1303 57.189 58.0058 57.0343 58.6489C56.8411 59.4525 56.29 60.3115 55.9112 60.9199C55.5886 61.4378 55.1255 62.1582 54.6121 62.7648C53.9969 63.4918 53.1808 63.9256 52.5381 64.3481C51.8171 64.8221 50.7425 65.1693 49.3615 65.3457C47.0493 65.6409 45.7049 65.2985 44.5397 65.1968C43.0869 65.07 42.0933 64.8355 41.3296 64.5611C40.6011 64.2994 40.0425 63.9769 39.6992 63.8141C38.9249 63.4472 38.2783 63.0254 37.5897 62.6488C36.6613 62.1411 36.0588 61.7163 35.5912 61.2568C35.1321 60.8057 34.8318 60.3434 34.5167 59.8923C33.9074 59.02 33.4324 58.3298 33.0277 57.5794C32.6525 56.8837 32.3428 56.1902 31.8379 54.8244C31.4477 53.7687 31.3572 52.8051 31.2541 52.2404L31.2496 52.217L31.2471 52.1931C31.2223 52.0033 31.2074 51.8332 31.1987 51.6646C31.1946 51.5845 31.192 51.5011 31.188 51.4012C31.1839 51.2969 31.1777 51.1561 31.1666 50.9412C31.1395 50.4175 31.5419 49.9709 32.0655 49.9436C32.467 49.9228 32.8233 50.1543 32.9799 50.4995C33.0276 50.6046 33.0568 50.7202 33.0632 50.8425C33.0747 51.0661 33.0809 51.2147 33.0853 51.3261C33.0873 51.3758 33.0887 51.4152 33.09 51.4491C33.0918 51.4943 33.0932 51.5297 33.0951 51.5668C33.1011 51.6831 33.1111 51.7992 33.128 51.9318C33.2616 52.6749 33.3104 53.3288 33.6199 54.1662C34.1077 55.4858 34.382 56.0898 34.6995 56.6785C35.0447 57.3184 35.4577 57.9226 36.0735 58.8043C36.4316 59.3169 36.6187 59.6033 36.9226 59.9019C37.2182 60.1923 37.6548 60.5198 38.5009 60.9824C39.3821 61.4644 39.7819 61.751 40.5127 62.0973C41.0415 62.3479 41.3539 62.5517 41.9716 62.7736C42.5544 62.983 43.3833 63.1894 44.7046 63.3046C46.1133 63.4275 47.0786 63.7226 49.1214 63.4617C50.3514 63.3046 51.1085 63.0143 51.495 62.7602C52.348 62.1995 52.7794 61.9889 53.1614 61.5376C53.5783 61.045 53.9797 60.4269 54.2983 59.9153C54.7398 59.2064 55.0819 58.6413 55.1869 58.2046C55.3189 57.6554 55.4538 56.8681 55.5296 56.0915C55.6077 55.2901 55.6125 54.605 55.5359 54.2138C55.3004 53.0109 54.9854 51.6786 54.4493 50.211C53.9864 48.9437 53.4492 47.6509 52.7117 46.3185C52.1306 45.2684 51.5159 44.1651 50.9321 43.4086C50.6423 43.0331 50.4099 42.6725 50.2411 42.3774C50.0884 42.1107 49.9484 41.8287 49.8899 41.6271C49.7546 41.1605 49.9931 40.6738 50.4294 40.4885C50.4641 40.4738 50.5 40.4609 50.5371 40.4502Z" fill="currentColor"/>
<path d="M16.2726 37.5172C16.7845 37.4035 17.292 37.726 17.4059 38.2379C17.4946 38.637 17.3181 39.0334 16.9934 39.2427C16.9016 39.3019 16.798 39.3461 16.6852 39.3712C16.5213 39.4077 16.4844 39.4313 16.2844 39.4987C16.1767 39.535 15.965 39.5947 15.875 39.621C15.3979 39.8072 14.8989 40.0622 14.4564 40.3777C13.8253 40.8277 13.1833 41.1162 12.5757 41.3833C11.98 41.6452 11.5543 41.7802 11.0542 42.2637C10.4882 42.8108 10.0943 43.1523 9.85318 43.5326C9.49027 44.1049 9.14223 44.5611 8.17668 46.3294C7.71385 47.177 7.4313 47.5009 7.16135 48.2321C6.91012 48.9126 6.69898 49.9262 6.63894 51.8378C6.59491 53.2406 6.69175 53.837 6.78506 54.4114C6.78799 54.4295 6.79093 54.4475 6.79385 54.4655C6.88671 55.0389 7.00556 55.6354 7.17724 56.1377C7.19324 56.1845 7.20898 56.2308 7.22457 56.2766C7.40844 56.8175 7.57025 57.2934 7.87592 57.7761C8.28769 58.4262 8.87022 59.2478 9.29803 59.7078C9.72719 60.1692 10.2088 60.6646 10.7593 61.061C10.9683 61.2114 11.3887 61.3923 11.9705 61.5513C12.5289 61.7039 13.1484 61.8131 13.6851 61.8638C14.377 61.9292 15.0608 61.9686 15.6118 61.8973C16.0257 61.8436 16.5255 61.8461 16.847 61.8318C17.2178 61.8154 17.5319 61.7779 17.8293 61.6763C18.9125 61.3062 20.4112 60.6713 21.0756 60.2088C21.5453 59.8819 22.1931 59.4228 24.6257 56.9067C26.2459 55.2309 27.4008 53.9233 28.329 52.9307C29.4485 51.7336 30.1436 51.0011 30.4122 50.7074C30.7864 50.2982 31.046 49.9638 31.2146 49.7244C31.3911 49.4737 31.4532 49.3487 31.4491 49.3579C31.664 48.8794 32.226 48.6661 32.7044 48.8809C33.1828 49.0959 33.3962 49.6578 33.1813 50.1363C33.1441 50.2191 33.0784 50.3418 32.9799 50.4995C32.7637 50.8455 32.3899 51.3598 31.8141 51.9894C31.537 52.2924 30.8176 53.0512 29.717 54.2282C28.8389 55.1672 27.6186 56.5441 25.9909 58.2276C23.5236 60.7795 22.7779 61.3389 22.1613 61.7682C21.2639 62.3928 19.5476 63.097 18.4435 63.4743C17.893 63.6623 17.3684 63.7103 16.9314 63.7297C16.4449 63.7513 16.1669 63.7406 15.8558 63.7809C15.074 63.8822 14.2025 63.8203 13.5063 63.7546C12.8653 63.694 12.1384 63.5661 11.4704 63.3836C10.8259 63.2074 10.1392 62.9551 9.64932 62.6023C8.93467 62.0877 8.34489 61.4722 7.9074 61.0019C7.35935 60.4126 6.70243 59.474 6.27094 58.7928C5.79485 58.041 5.56397 57.2898 5.38015 56.752C5.15535 56.0943 5.01619 55.3704 4.91884 54.7692C4.81057 54.1008 4.68964 53.3845 4.74002 51.779C4.80333 49.762 5.02961 48.5217 5.37945 47.5741C5.71063 46.6771 6.19308 45.998 6.50924 45.419C7.51316 43.5804 7.90901 43.0517 8.24908 42.5154C8.64813 41.886 9.29734 41.3202 9.73428 40.8978C10.5343 40.1244 11.3351 39.8538 11.8114 39.6444C12.4234 39.3753 12.9005 39.1553 13.3544 38.8316C13.9539 38.4042 14.6074 38.0737 15.2159 37.8388L15.245 37.8278L15.275 37.8178C15.5099 37.7447 15.5267 37.7489 15.6773 37.6981C15.7549 37.672 15.9771 37.5829 16.2726 37.5172Z" fill="currentColor"/>
<path d="M12.9303 12.4757C13.8534 12.5268 17.2067 13.0649 18.9401 13.4167C19.6559 13.562 20.6315 14.0071 21.2982 14.3044C21.9052 14.5752 22.597 15.044 23.126 15.356C23.6986 15.6936 24.2586 16.0926 24.7589 16.4637C25.4013 16.9401 25.8962 17.5065 26.2755 18.0446C26.4026 18.2248 26.5594 18.3985 26.755 18.5994C26.8444 18.6913 26.951 18.798 27.0622 18.9114L27.4036 19.2715C27.5835 19.4755 27.7707 19.6688 27.9852 19.8898L27.9996 19.9045L28.0122 19.9189C28.1486 20.0716 28.2854 20.2487 28.3988 20.3949C28.5813 20.6302 28.6358 20.9241 28.573 21.193C28.5252 21.3976 28.4095 21.5877 28.2305 21.7267C27.816 22.0482 27.2191 21.9735 26.8976 21.5591C26.7764 21.4028 26.6843 21.2837 26.6019 21.1908C26.401 20.9837 26.1911 20.7674 25.9854 20.5345L25.7076 20.2426C25.6772 20.2117 25.6461 20.1803 25.6142 20.148C25.5456 20.0786 25.4731 20.0052 25.394 19.9239C25.1787 19.7027 24.9381 19.4438 24.7232 19.139C24.4282 18.7205 24.0679 18.3159 23.6271 17.989C23.1412 17.6286 22.646 17.2783 22.1616 16.9926C21.4529 16.5747 21.0039 16.2531 20.5249 16.0394C19.7642 15.7002 19.0212 15.3714 18.5621 15.2782C16.8317 14.9271 13.5966 14.415 12.8248 14.3724C12.1372 14.3344 11.6526 14.2704 11.108 14.3323C10.375 14.4157 9.97885 14.3895 9.47791 14.546C8.86958 14.7361 8.44517 14.9639 7.78717 15.2264C7.47219 15.352 7.18796 15.4562 6.91052 15.5955C6.63308 15.7349 6.46713 15.8606 6.38274 15.9658C6.22669 16.1604 5.93982 16.5535 5.66723 17.0135C5.38695 17.4864 5.16387 17.9609 5.07931 18.334C4.87817 19.2218 4.63719 20.4151 4.46075 21.4765C4.37245 22.0077 4.30207 22.4958 4.26042 22.8913C4.23958 23.0891 4.22698 23.2553 4.22213 23.3872C4.21971 23.4527 4.21944 23.5055 4.22051 23.5459C4.22104 23.5656 4.22212 23.5812 4.22295 23.5924C4.22377 23.6033 4.22396 23.6086 4.22396 23.6086C4.29845 24.1353 4.30333 24.5654 4.30989 24.9168C4.31653 25.2724 4.32525 25.5369 4.38146 25.8341C4.38712 25.864 4.39286 25.8939 4.39852 25.9238C4.52899 26.6142 4.66062 27.311 4.88956 27.9565C5.25178 28.9776 5.68188 29.8055 6.02864 30.3406C6.46064 31.0073 6.67847 31.4581 7.37086 32.2663C7.41153 32.3138 7.45137 32.3602 7.49037 32.4058C8.68067 33.7955 9.11398 34.3015 9.8203 34.6627C10.2467 34.8807 10.6547 35.1382 11.0265 35.3534C11.4179 35.58 11.8679 35.8208 12.4988 36.0838C14.1462 36.7707 16.2891 37.2087 17.1575 37.3565C17.6745 37.4446 18.0224 37.9351 17.9344 38.4522C17.8551 38.9171 17.4502 39.2454 16.9934 39.2427C16.9424 39.2424 16.8907 39.2379 16.8388 39.2291C15.9321 39.0748 13.618 38.6088 11.7676 37.8373C11.0425 37.5349 10.5179 37.2533 10.075 36.9969C9.61253 36.7292 9.32559 36.5431 8.95574 36.3539C7.81334 35.7697 7.10526 34.8757 5.9289 33.5027C5.12693 32.5667 4.79517 31.9291 4.43504 31.3734C4.00289 30.7065 3.50814 29.7444 3.09926 28.5917C2.80172 27.7528 2.64438 26.868 2.51573 26.1883C2.42653 25.7171 2.41759 25.3081 2.41095 24.9521C2.40422 24.5918 2.39922 24.2712 2.34313 23.8746C2.29733 23.5508 2.32762 23.1066 2.37128 22.6921C2.41845 22.2442 2.49558 21.7147 2.58709 21.1642C2.77034 20.0619 3.01864 18.8328 3.22676 17.9143C3.37671 17.2525 3.71746 16.5766 4.03216 16.0456C4.35438 15.5018 4.69424 15.036 4.90075 14.7784C5.23607 14.3601 5.68541 14.0853 6.05819 13.8981C6.43125 13.7108 6.83449 13.5614 7.08359 13.462C7.5299 13.284 8.22661 12.9475 8.91141 12.7335C9.64012 12.5058 10.4636 12.4939 10.893 12.4451C11.6485 12.3591 12.4053 12.4468 12.9303 12.4757Z" fill="currentColor"/>
<path d="M36.8502 28.1083L37.2203 28.1835L37.241 28.1889L37.2608 28.1942C37.5384 28.2721 37.7857 28.3549 38.0248 28.4484L38.2621 28.5462L38.3183 28.5698L38.3713 28.6014C38.9588 28.9487 39.5334 29.3354 40.0615 29.8591C40.4557 30.25 41.0663 30.8213 41.3532 31.6115C41.5268 32.0898 41.8123 32.7571 41.9762 33.4571C42.0316 33.694 42.1908 34.1864 42.2366 34.8403C42.2836 35.5122 42.2219 36.3576 41.9368 37.5139C41.6832 38.5426 41.5003 39.3432 40.938 40.0488C40.681 40.3712 40.2929 40.7324 39.8428 41.0168C39.4031 41.2946 38.8036 41.5617 38.1428 41.5469C37.5555 41.5337 36.8828 41.4563 36.2891 41.3499C35.7237 41.2487 35.1215 41.103 34.7327 40.9148C34.1551 40.6351 33.2539 40.1708 32.5461 39.1079C32.0304 38.3333 31.4727 37.5292 31.1931 36.6648C31.0036 36.0786 30.6936 35.29 30.7693 34.4617C30.829 33.8092 30.9353 33.0517 31.0727 32.3748C31.201 31.7431 31.3829 31.0399 31.6425 30.5967C32.1604 29.7128 32.8633 28.6311 34.1494 28.2884C34.5516 28.1813 34.9621 28.1335 35.2945 28.1164C35.5095 28.1053 35.7237 28.1073 35.9046 28.1195C36.0744 28.0393 36.2691 28.0076 36.4683 28.0414C36.5903 28.0622 36.7214 28.0846 36.8502 28.1083ZM36.3551 29.9499C36.1915 30.0214 36.0062 30.0485 35.817 30.0164C35.8106 30.0158 35.7729 30.0116 35.6987 30.0094C35.617 30.007 35.5118 30.0075 35.3922 30.0137C35.148 30.0262 34.8762 30.0603 34.6387 30.1235C34.1809 30.2455 33.8157 30.6438 33.2808 31.5567C33.2003 31.6942 33.0658 32.105 32.9343 32.7528C32.812 33.3554 32.7152 34.0434 32.6611 34.634C32.6299 34.975 32.7477 35.2998 33.0002 36.0804C33.1777 36.6293 33.5434 37.1786 34.1002 38.0146C34.1091 38.028 34.1181 38.0415 34.1271 38.0551C34.5444 38.6818 35.0618 38.9634 35.5609 39.2051C35.6974 39.2711 36.0758 39.3819 36.6233 39.48C37.1428 39.5731 37.7165 39.6376 38.1856 39.6481C38.3228 39.6511 38.5477 39.5882 38.8281 39.4112C39.0984 39.2404 39.3277 39.0213 39.4527 38.8645C39.704 38.5491 39.81 38.203 40.0921 37.0588C40.3405 36.0512 40.3722 35.4077 40.3417 34.9731C40.31 34.5208 40.2207 34.2887 40.1272 33.8895C39.9975 33.3356 39.7939 32.8839 39.5673 32.2597C39.4537 31.947 39.1978 31.6785 38.7236 31.2082C38.3673 30.8549 37.9602 30.5688 37.4615 30.2709C37.2438 30.1799 37.024 30.1018 36.7615 30.0275C36.6505 30.0024 36.5144 29.9776 36.3551 29.9499Z" fill="currentColor"/>
<path fill-rule="evenodd" clip-rule="evenodd" d="M35.817 30.0164C36.0062 30.0485 36.1915 30.0214 36.3551 29.9499C36.5144 29.9776 36.6505 30.0024 36.7615 30.0275C37.024 30.1018 37.2438 30.1799 37.4615 30.2709C37.9602 30.5688 38.3673 30.8549 38.7236 31.2082C39.1978 31.6785 39.4537 31.947 39.5673 32.2597C39.6297 32.4317 39.6904 32.5906 39.7483 32.7421C39.9005 33.1405 40.0333 33.4882 40.1272 33.8895C40.151 33.9911 40.1746 34.082 40.1969 34.1683C40.2625 34.4212 40.3181 34.636 40.3417 34.9731C40.3722 35.4077 40.3405 36.0512 40.0921 37.0588C39.81 38.203 39.704 38.5491 39.4527 38.8645C39.3277 39.0213 39.0984 39.2404 38.8281 39.4112C38.5477 39.5882 38.3228 39.6511 38.1856 39.6481C37.7165 39.6376 37.1428 39.5731 36.6233 39.48C36.0758 39.3819 35.6974 39.2711 35.5609 39.2051C35.0618 38.9634 34.5444 38.6818 34.1271 38.0551L34.1002 38.0146C33.5434 37.1786 33.1777 36.6293 33.0002 36.0804C32.98 36.018 32.9607 35.9585 32.9422 35.9017C32.7298 35.2478 32.6324 34.9478 32.6611 34.634C32.7152 34.0434 32.812 33.3554 32.9343 32.7528C33.0658 32.105 33.2003 31.6942 33.2808 31.5567C33.8157 30.6438 34.1809 30.2455 34.6387 30.1235C34.8762 30.0603 35.148 30.0262 35.3922 30.0137C35.5118 30.0075 35.617 30.007 35.6987 30.0094C35.7684 30.0115 35.8074 30.0154 35.817 30.0164Z" fill="currentColor"/>
</svg>
