<svg viewBox="0 0 48 48" fill="none" xmlns="http://www.w3.org/2000/svg">
<path d="M11.2 35.2C10.5576 35.2 9.9544 34.9496 9.5024 34.496L0.7032 25.6968C0.2504 25.2456 0 24.6424 0 24C0 23.3576 0.2504 22.7544 0.704 22.3024L9.5032 13.5032C9.9544 13.0504 10.5576 12.8 11.2 12.8C12.5232 12.8 13.6 13.8768 13.6 15.2C13.6 15.8424 13.3496 16.4456 12.896 16.8976L5.7936 24L12.8968 31.1032C13.3504 31.5544 13.6 32.1576 13.6 32.8C13.6 34.1232 12.5232 35.2 11.2 35.2Z" fill="currentColor"/>
<path d="M36.8 36C35.4768 36 34.4 34.9232 34.4 33.6C34.4 32.9576 34.6504 32.3544 35.104 31.9024L42.2064 24.8L35.1032 17.6968C34.6504 17.244 34.4 16.6408 34.4 16C34.4 14.6768 35.4768 13.6 36.8 13.6C37.4424 13.6 38.0456 13.8504 38.4976 14.304L47.2968 23.1032C47.7504 23.556 48 24.1592 48 24.8C48 25.4424 47.7496 26.0456 47.296 26.4976L38.4968 35.2968C38.0456 35.7504 37.4424 36 36.8 36Z" fill="currentColor"/>
<path d="M16.8 42.4C15.4768 42.4 14.4 41.3232 14.4 40C14.4 39.6816 14.4624 39.3704 14.584 39.076L28.9848 7.0744C29.3608 6.1784 30.2304 5.6 31.2 5.6C32.5232 5.6 33.6 6.6768 33.6 8C33.6 8.3184 33.5376 8.6296 33.416 8.924L19.0152 40.9256C18.6392 41.8216 17.7696 42.4 16.8 42.4Z" fill="currentColor"/>
</svg>
