<svg width="47" height="46" viewBox="0 0 47 46" fill="none" xmlns="http://www.w3.org/2000/svg" style="color:#FF8FAB">
<path d="M45.0581 25.6256C45.9451 24.7405 46.4341 23.563 46.4346 22.3098C46.4353 21.0567 45.9477 19.8786 45.0616 18.9925C44.6103 18.5412 44.0882 18.2017 43.5304 17.9735L45.4553 16.056C46.3443 15.1712 46.8347 13.9932 46.8361 12.7389C46.8376 11.4846 46.35 10.3054 45.4631 9.41848L45.4133 9.36864C44.7289 8.68426 43.8829 8.25627 42.9964 8.08476C43.0502 7.79975 43.0787 7.50793 43.079 7.21149C43.0804 5.95738 42.5928 4.77826 41.706 3.89155L41.6448 3.83038C40.7593 2.94491 39.5821 2.45729 38.33 2.45729C37.4845 2.45729 36.6737 2.68036 35.9634 3.09731C35.732 2.47102 35.3669 1.89668 34.8813 1.41117L34.841 1.37064C33.0133 -0.456753 30.0393 -0.457041 28.2114 1.37074L15.6842 13.8981L17.2402 7.4723C17.855 4.93334 16.4677 2.34436 14.0132 1.44996C12.632 0.946587 11.0992 1.06124 9.80799 1.76407C8.51681 2.46689 7.58861 3.692 7.26135 5.1253L7.04798 6.06022C6.0274 10.5308 4.3404 15.0232 2.03383 19.4124C0.305437 22.7013 -0.352829 26.5477 0.180314 30.243C0.731894 34.0664 2.47104 37.5351 5.20983 40.2738C8.57174 43.6358 13.0401 45.4867 17.7941 45.4865H17.8062C22.5645 45.4835 27.0356 43.6262 30.3958 40.2571L33.9823 36.6611L45.0581 25.6256ZM28.3561 38.2227C25.5398 41.0464 21.7924 42.603 17.8044 42.6057H17.7942C13.8099 42.6057 10.0645 41.0544 7.24685 38.2368C4.95123 35.9413 3.49363 33.0347 3.03155 29.8317C2.58445 26.7326 3.13584 23.5082 4.58402 20.7525C7.00659 16.1426 8.7806 11.4151 9.85658 6.7013L10.07 5.76647C10.2153 5.12953 10.6114 4.60676 11.1853 4.29438C11.7592 3.982 12.4134 3.93322 13.0271 4.15677C14.102 4.54847 14.7097 5.68235 14.4404 6.79435L11.6777 18.2027C11.35 19.3786 12.865 20.6885 14.0962 19.5602L30.2485 3.40786C30.9531 2.70311 32.0995 2.70331 32.8029 3.40651L32.8433 3.44694C33.1845 3.78832 33.3725 4.24195 33.3725 4.72468C33.3725 5.2074 33.1844 5.66113 32.8433 6.00251C30.2141 8.63154 25.4984 13.3472 22.9177 15.928C22.3552 16.4904 22.3552 17.4025 22.9177 17.965C23.4802 18.5275 24.3923 18.5275 24.9547 17.965C26.5493 16.3705 35.71 7.20976 37.0524 5.8675C37.3937 5.52612 37.8474 5.33819 38.3301 5.33819C38.8129 5.33819 39.2666 5.52612 39.608 5.8675L39.6692 5.92866C40.011 6.27052 40.1989 6.72502 40.1985 7.20842C40.1979 7.69182 40.0089 8.14593 39.6661 8.48721C36.0544 12.0845 31.115 17.0026 27.5397 20.5658C26.976 21.1273 26.9743 22.0392 27.5356 22.6029C27.8171 22.8854 28.1865 23.0268 28.5561 23.0268C28.9238 23.0268 29.2916 22.8869 29.5726 22.6069C29.5917 22.5878 29.6112 22.5685 29.6309 22.5489C32.0802 20.1091 38.5424 13.6719 40.8239 11.4027C41.5284 10.7016 42.6735 10.7029 43.3764 11.4057L43.4261 11.4555C43.7681 11.7975 43.956 12.252 43.9554 12.7354C43.9548 13.2189 43.7658 13.6731 43.4227 14.0145C39.9193 17.5041 34.371 23.0298 30.8984 26.4917C30.3348 27.0533 30.3331 27.9652 30.8946 28.5288C31.176 28.8112 31.5455 28.9526 31.915 28.9526C32.2826 28.9526 32.6505 28.8126 32.9315 28.5327L39.5365 21.9525L40.4757 21.023C41.1802 20.3256 42.3237 20.3288 43.0246 21.0295C43.3662 21.3711 43.5541 21.8252 43.5538 22.3082C43.5536 22.7912 43.3651 23.2452 43.024 23.5856L31.9458 34.6235L28.3561 38.2227Z" fill="currentColor"/>
<path fill-rule="evenodd" clip-rule="evenodd" d="M17.8044 42.6057C21.7924 42.603 25.5398 41.0464 28.3561 38.2227L31.9458 34.6235L43.024 23.5856C43.3651 23.2452 43.5536 22.7912 43.5538 22.3082C43.5541 21.8252 43.3662 21.3711 43.0246 21.0295C42.3237 20.3288 41.1802 20.3256 40.4757 21.023L39.5365 21.9525L32.9315 28.5327C32.6505 28.8126 32.2826 28.9526 31.915 28.9526C31.5455 28.9526 31.176 28.8112 30.8946 28.5288C30.3331 27.9652 30.3348 27.0533 30.8984 26.4917C33.8712 23.528 38.3654 19.0517 41.7954 15.6353C42.372 15.061 42.9185 14.5167 43.4227 14.0145C43.7658 13.6731 43.9548 13.2189 43.9554 12.7354C43.956 12.252 43.7681 11.7975 43.4261 11.4555L43.3764 11.4057C42.6735 10.7029 41.5284 10.7016 40.8239 11.4027C38.5456 13.6687 32.0984 20.0909 29.6413 22.5385L29.6309 22.5489L29.5726 22.6069C29.2916 22.8869 28.9238 23.0268 28.5561 23.0268C28.1865 23.0268 27.8171 22.8854 27.5356 22.6029C26.9743 22.0392 26.976 21.1273 27.5397 20.5658C30.085 18.0291 33.3217 14.8056 36.2785 11.861C37.475 10.6694 38.6256 9.52351 39.6661 8.48721C40.0089 8.14593 40.1979 7.69182 40.1985 7.20842C40.1989 6.72502 40.011 6.27052 39.6692 5.92866L39.608 5.8675C39.2666 5.52612 38.8129 5.33819 38.3301 5.33819C37.8474 5.33819 37.3937 5.52612 37.0524 5.8675L24.9547 17.965C24.3923 18.5275 23.4802 18.5275 22.9177 17.965C22.3552 17.4025 22.3552 16.4904 22.9177 15.928L32.8433 6.00251C33.1844 5.66113 33.3725 5.2074 33.3725 4.72468C33.3725 4.24195 33.1845 3.78832 32.8433 3.44694L32.8029 3.40651C32.0995 2.70331 30.9531 2.70311 30.2485 3.40786L14.0962 19.5602C12.865 20.6885 11.35 19.3786 11.6777 18.2027L14.4404 6.79435C14.7097 5.68235 14.102 4.54847 13.0271 4.15677C12.4134 3.93322 11.7592 3.982 11.1853 4.29438C10.6114 4.60676 10.2153 5.12953 10.07 5.76647L9.85658 6.7013C8.7806 11.4151 7.00659 16.1426 4.58402 20.7525C3.13584 23.5082 2.58445 26.7326 3.03155 29.8317C3.49363 33.0347 4.95123 35.9413 7.24685 38.2368C10.0645 41.0544 13.8099 42.6057 17.7942 42.6057H17.8044Z" fill="var(--icon-fill, #FFFDF5)"/>
</svg>
