<svg width="48" height="48" viewBox="0 0 48 48" fill="none" xmlns="http://www.w3.org/2000/svg">
<path d="M45.0583 25.9629C45.9453 25.0778 46.4343 23.9003 46.4349 22.6471C46.4356 21.394 45.9479 20.2159 45.0619 19.3298C44.6106 18.8784 44.0885 18.539 43.5306 18.3108L45.4555 16.3933C46.3445 15.5085 46.8349 14.3305 46.8364 13.0762C46.8378 11.8219 46.3503 10.6427 45.4634 9.75578L45.4135 9.70594C44.7292 9.02155 43.8832 8.59356 42.9966 8.42206C43.0504 8.13705 43.0789 7.84522 43.0792 7.54879C43.0807 6.29467 42.593 5.11556 41.7062 4.22884L41.6451 4.16767C40.7596 3.28221 39.5824 2.79458 38.3302 2.79458C37.4848 2.79458 36.6739 3.01765 35.9636 3.4346C35.7323 2.80831 35.3672 2.23397 34.8816 1.74846L34.8412 1.70794C33.0136 -0.119457 30.0395 -0.119745 28.2116 1.70803L15.6844 14.2354L17.2404 7.8096C17.8552 5.27064 16.4679 2.68165 14.0135 1.78726C12.6322 1.28388 11.0994 1.39854 9.80823 2.10136C8.51705 2.80418 7.58886 4.0293 7.2616 5.4626L7.04822 6.39752C6.02765 10.8681 4.34064 15.3605 2.03407 19.7497C0.305681 23.0386 -0.352584 26.885 0.180558 30.5803C0.732138 34.4037 2.47128 37.8724 5.21007 40.6111C8.57198 43.9731 13.0403 45.824 17.7943 45.8238H17.8064C22.5648 45.8208 27.0359 43.9635 30.3961 40.5944L33.9826 36.9984L45.0583 25.9629ZM28.3563 38.56C25.5401 41.3837 21.7926 42.9403 17.8046 42.943H17.7944C13.8102 42.943 10.0647 41.3917 7.2471 38.5741C4.95147 36.2786 3.49388 33.372 3.03179 30.169C2.58469 27.0699 3.13608 23.8454 4.58426 21.0898C7.00684 16.4799 8.78084 11.7524 9.85682 7.03859L10.0702 6.10377C10.2156 5.46682 10.6117 4.94405 11.1856 4.63168C11.7594 4.3193 12.4136 4.27052 13.0274 4.49407C14.1023 4.88576 14.7099 6.01965 14.4407 7.13164L11.678 18.54C11.3502 19.7159 12.8653 21.0258 14.0964 19.8975L30.2488 3.74515C30.9533 3.04041 32.0998 3.0406 32.8032 3.74381L32.8435 3.78424C33.1848 4.12561 33.3727 4.57924 33.3727 5.06197C33.3727 5.5447 33.1847 5.99843 32.8435 6.33981C30.2144 8.96883 25.4987 13.6845 22.9179 16.2653C22.3554 16.8277 22.3554 17.7398 22.9179 18.3023C23.4805 18.8648 24.3925 18.8648 24.955 18.3023C26.5495 16.7078 35.7103 7.54706 37.0527 6.20479C37.3939 5.86341 37.8477 5.67549 38.3304 5.67549C38.8131 5.67549 39.2668 5.86341 39.6082 6.20479L39.6694 6.26596C40.0113 6.60782 40.1992 7.06231 40.1987 7.54571C40.1981 8.02911 40.0091 8.48323 39.6663 8.82451C36.0546 12.4218 31.1152 17.3399 27.5399 20.9031C26.9762 21.4646 26.9745 22.3765 27.5359 22.9402C27.8173 23.2227 28.1868 23.3641 28.5564 23.3641C28.9241 23.3641 29.2918 23.2242 29.5728 22.9442C29.592 22.9251 29.6114 22.9058 29.6311 22.8861C32.0804 20.4464 38.5426 14.0092 40.8241 11.74C41.5287 11.0389 42.6737 11.0402 43.3766 11.743L43.4264 11.7928C43.7683 12.1348 43.9562 12.5892 43.9557 13.0727C43.9551 13.5562 43.766 14.0104 43.4229 14.3518C39.9195 17.8414 34.3712 23.3671 30.8987 26.829C30.3351 27.3906 30.3334 28.3025 30.8948 28.8661C31.1763 29.1485 31.5457 29.2899 31.9152 29.2899C32.2829 29.2899 32.6508 29.1499 32.9317 28.87L39.5368 22.2898L40.4759 21.3603C41.1805 20.6629 42.324 20.6661 43.0249 21.3668C43.3664 21.7084 43.5544 22.1625 43.5541 22.6455C43.5539 23.1285 43.3654 23.5825 43.0242 23.9229L31.946 34.9608L28.3563 38.56Z" fill="currentColor"/>
<path fill-rule="evenodd" clip-rule="evenodd" d="M17.8046 42.943C21.7926 42.9403 25.5401 41.3837 28.3563 38.56L31.946 34.9608L43.0242 23.9229C43.3654 23.5825 43.5539 23.1285 43.5541 22.6455C43.5544 22.1625 43.3664 21.7084 43.0249 21.3668C42.324 20.6661 41.1805 20.6629 40.4759 21.3603L39.5368 22.2898L32.9317 28.87C32.6508 29.1499 32.2829 29.2899 31.9152 29.2899C31.5457 29.2899 31.1763 29.1485 30.8948 28.8661C30.3334 28.3025 30.3351 27.3906 30.8987 26.829C33.8715 23.8653 38.3656 19.389 41.7957 15.9726C42.3722 15.3983 42.9187 14.854 43.4229 14.3518C43.766 14.0104 43.9551 13.5562 43.9557 13.0727C43.9562 12.5892 43.7683 12.1348 43.4264 11.7928L43.3766 11.743C42.6737 11.0402 41.5287 11.0389 40.8241 11.74C38.5458 14.006 32.0986 20.4282 29.6415 22.8758L29.6311 22.8861L29.5728 22.9442C29.2918 23.2242 28.9241 23.3641 28.5564 23.3641C28.1868 23.3641 27.8173 23.2227 27.5359 22.9402C26.9745 22.3765 26.9762 21.4646 27.5399 20.9031C30.0852 18.3664 33.322 15.1429 36.2788 12.1983C37.4752 11.0067 38.6259 9.8608 39.6663 8.82451C40.0091 8.48323 40.1981 8.02911 40.1987 7.54571C40.1992 7.06231 40.0113 6.60782 39.6694 6.26596L39.6082 6.20479C39.2668 5.86341 38.8131 5.67549 38.3304 5.67549C37.8477 5.67549 37.3939 5.86341 37.0527 6.20479L24.955 18.3023C24.3925 18.8648 23.4805 18.8648 22.9179 18.3023C22.3554 17.7398 22.3554 16.8277 22.9179 16.2653L32.8435 6.33981C33.1847 5.99843 33.3727 5.5447 33.3727 5.06197C33.3727 4.57924 33.1848 4.12561 32.8435 3.78424L32.8032 3.74381C32.0998 3.0406 30.9533 3.04041 30.2488 3.74515L14.0964 19.8975C12.8653 21.0258 11.3502 19.7159 11.678 18.54L14.4407 7.13164C14.7099 6.01965 14.1023 4.88576 13.0274 4.49407C12.4136 4.27052 11.7594 4.3193 11.1856 4.63168C10.6117 4.94405 10.2156 5.46682 10.0702 6.10377L9.85682 7.03859C8.78084 11.7524 7.00684 16.4799 4.58426 21.0898C3.13608 23.8454 2.58469 27.0699 3.03179 30.169C3.49388 33.372 4.95147 36.2786 7.2471 38.5741C10.0647 41.3917 13.8102 42.943 17.7944 42.943H17.8046Z" fill="currentColor"/>
</svg>
