<svg width="48" height="48" viewBox="0 0 48 48" fill="none" xmlns="http://www.w3.org/2000/svg">
<path fill-rule="evenodd" clip-rule="evenodd" d="M6.58596 6.58578C5.80492 7.36684 5.80492 8.63316 6.58596 9.41422L8.58596 11.4142C9.36702 12.1953 10.6333 12.1953 11.4144 11.4142C12.1954 10.6332 12.1954 9.36684 11.4144 8.58578L9.4144 6.58578C8.63334 5.80474 7.36702 5.80474 6.58596 6.58578ZM38.586 6.58578C39.367 5.80474 40.6334 5.80474 41.4144 6.58578C42.1954 7.36684 42.1954 8.63316 41.4144 9.41422L39.4144 11.4142C38.6334 12.1953 37.367 12.1953 36.586 11.4142C35.805 10.6332 35.805 9.36684 36.586 8.58578L38.586 6.58578ZM39.4144 28.5858L41.4144 30.5858C42.1954 31.3668 42.1954 32.6332 41.4144 33.4142C40.6334 34.1952 39.367 34.1952 38.586 33.4142L36.586 31.4142C35.805 30.6332 35.805 29.3668 36.586 28.5858C37.367 27.8048 38.6334 27.8048 39.4144 28.5858ZM6.58596 33.4142C5.80492 32.6332 5.80492 31.3668 6.58596 30.5858L8.58596 28.5858C9.36702 27.8048 10.6333 27.8048 11.4144 28.5858C12.1954 29.3668 12.1954 30.6332 11.4144 31.4142L9.4144 33.4142C8.63334 34.1952 7.36702 34.1952 6.58596 33.4142ZM40.8284 22C41.933 22.0002 42.8284 21.1048 42.8284 20.0002C42.8286 18.8956 41.9332 18.0001 40.8286 18.0001L40.0002 18C38.8956 17.9999 38.0002 18.8953 38 19.9999C38 21.1044 38.8954 22 40 22H40.8284ZM4 20.4144C4.00008 21.519 4.89558 22.4144 6.00014 22.4142H6.82856C7.93314 22.4142 8.8285 21.5186 8.82842 20.414C8.82834 19.3095 7.93286 18.4141 6.82828 18.4142L5.99986 18.4142C4.8953 18.4143 3.99992 19.3098 4 20.4144ZM30.8732 29.8378C33.973 27.6682 36 24.0708 36 20C36 13.3726 30.6274 8 24 8C17.3726 8 12 13.3726 12 20C12 24.0708 14.027 27.6682 17.1267 29.8378C16.4225 30.6994 16 31.8004 16 33C16 35.4198 17.719 37.4382 20.0024 37.9004C20.0008 37.9334 20 37.9666 20 38C20 39.1046 20.8954 40 22 40H26C27.1046 40 28 39.1046 28 38C28 37.9666 27.9992 37.9334 27.9976 37.9004C30.281 37.4382 32 35.4198 32 33C32 31.8004 31.5776 30.6994 30.8732 29.8378ZM24 28C28.4182 28 32 24.4182 32 20C32 15.5817 28.4182 12 24 12C19.5817 12 16 15.5817 16 20C16 24.4182 19.5817 28 24 28ZM24 32H23.8292H21C20.4478 32 20 32.4478 20 33C20 33.5522 20.4478 34 21 34H23.8292H24.1708H27C27.5522 34 28 33.5522 28 33C28 32.4478 27.5522 32 27 32H24.1708H24Z" fill="#FFD166"/>
</svg>
