<svg viewBox="0 0 48 48" fill="none" xmlns="http://www.w3.org/2000/svg">
<path d="M47.4222 16.9142L26.1811 7.13663C25.4921 6.81928 24.7582 6.65916 24 6.65916C23.2418 6.65916 22.5081 6.81928 21.8189 7.13663L0.577781 16.9142C0.226688 17.0765 0 17.4302 0 17.8167C0 18.2032 0.226688 18.557 0.577781 18.7192L21.8189 28.4968C22.5079 28.8142 23.2418 28.975 24 28.975C24.7582 28.975 25.4921 28.8142 26.1813 28.4968L42.9449 20.7806V28.5507C42.2797 28.6257 41.7608 29.192 41.7608 29.8762C41.7608 30.4723 42.1553 30.9884 42.7177 31.1528L41.584 38.6332H46.8037L45.6702 31.1528C46.2323 30.9884 46.6268 30.4723 46.6268 29.8762C46.6268 29.192 46.108 28.6257 45.4428 28.5507V19.6306L47.4224 18.7192C47.7734 18.557 48.0002 18.2032 48.0002 17.8167C48.0002 17.4302 47.7733 17.0765 47.4222 16.9142Z" fill="currentColor"/>
<path d="M24 32.5154C22.9457 32.5154 21.9241 32.2913 20.9638 31.8494L10.5743 27.0666V36.5951C10.5743 38.6871 16.8955 41.3408 24 41.3408C31.1046 41.3408 37.4258 38.687 37.4258 36.5951V27.0666L27.0358 31.8494C26.0761 32.2913 25.0547 32.5154 24 32.5154Z" fill="currentColor"/>
</svg>
